<svg xmlns="http://www.w3.org/2000/svg" width="363.0880126953125" height="364.71441650390625" viewBox="-89.84323120117188 -76.64688110351562 363.0880126953125 364.71441650390625"><title>Neo4j Graph Visualization</title><desc>Created using Neo4j (http://www.neo4j.com/)</desc><g class="layer relationships"><g class="relationship" transform="translate(135.7778567783348 259.06753330622394) rotate(330.0906193476823)"><path class="outline" fill="#A5ABB6" stroke="none" d="M 21.40063509461097,12.933012701892217 L 21.90063509461097,12.06698729810778 A 57.58226874365048 57.58226874365048 0 0 0 24.244022111242256,13.348417908700988 L 23.784718441341088,14.236697222214097 A 58.58226874365048 58.58226874365048 0 0 1 21.40063509461097,12.933012701892217 Z M 74.27425873420485,15.825284747644105 L 73.87170537166843,14.90988822683434 A 57.58226874365048 57.58226874365048 0 0 0 76.29101457509721,13.778309640219053 L 74.95730999899102,11.09107461073737 L 82.7835137399055,11.114204800884895 L 78.0692873432388,17.36128967952796 L 76.73558276713261,14.67405465004628 A 58.58226874365048 58.58226874365048 0 0 1 74.27425873420485,15.825284747644105"/><text text-anchor="middle" pointer-events="none" font-size="8px" fill="#000000" x="48.8651905446201" y="23.252820148896717" font-family="sans-serif">PRODUCED</text></g><g class="relationship" transform="translate(135.7778567783348 259.06753330622394) rotate(330.0906193476823)"><path class="outline" fill="#A5ABB6" stroke="none" d="M 25 0.5 L 25.64325699279309 0.5 L 25.64325699279309 -0.5 L 25 -0.5 Z M 72.53388199279308 0.5 L 73.17713898558618 0.5 L 73.17713898558618 3.5 L 80.17713898558618 0 L 73.17713898558618 -3.5 L 73.17713898558618 -0.5 L 72.53388199279308 -0.5 Z"/><text text-anchor="middle" pointer-events="none" font-size="8px" fill="#000000" x="49.08856949279309" y="3" font-family="sans-serif">DIRECTED</text></g><g class="relationship" transform="translate(135.7778567783348 259.06753330622394) rotate(330.0906193476823)"><path class="outline" fill="#A5ABB6" stroke="none" d="M 21.40063509461097,-12.933012701892217 L 21.90063509461097,-12.06698729810778 A 57.58226874365048 57.58226874365048 0 0 1 31.520955334377895,-16.496586866560058 L 31.188026213133913,-17.43953872123118 A 58.58226874365048 58.58226874365048 0 0 0 21.40063509461097,-12.933012701892217 Z M 66.68424735091078,-18.55638101712642 L 66.4112555698233,-17.594364651642607 A 57.58226874365048 57.58226874365048 0 0 1 76.29101457509721,-13.778309640219053 L 74.95730999899102,-11.09107461073737 L 82.7835137399055,-11.114204800884895 L 78.0692873432388,-17.36128967952796 L 76.73558276713261,-14.67405465004628 A 58.58226874365048 58.58226874365048 0 0 0 66.68424735091078,-18.55638101712642"/><text text-anchor="middle" pointer-events="none" font-size="8px" fill="#000000" x="48.865190544620106" y="-17.252820148896717" font-family="sans-serif">WROTE</text></g><g class="relationship" transform="translate(244.24478307604443 16.17368455131583) rotate(202.0329041945164)"><path class="outline" fill="#A5ABB6" stroke="none" d="M 24.018736134675446,6.953439040707552 L 24.277555179777966,5.987513214418485 A 99.59187045398834 99.59187045398834 0 0 0 25.356368051777615,6.270115996791162 L 25.10838134536983,7.238879432024461 A 100.59187045398834 100.59187045398834 0 0 1 24.018736134675446,6.953439040707552 Z M 71.79723689467598,8.00294357920555 L 71.58108216163552,7.026584459114886 A 99.59187045398834 99.59187045398834 0 0 0 72.66856447106703,6.779433144996666 L 71.98734210691245,3.8578007090842257 L 79.59924388222181,5.67685303462141 L 73.57686095660645,10.674943059546587 L 72.89563859245187,7.753310623634146 A 100.59187045398834 100.59187045398834 0 0 1 71.79723689467598,8.00294357920555"/><text text-anchor="middle" pointer-events="none" font-size="8px" fill="#000000" x="48.41604162720937" y="12.86762360068522" transform="rotate(180 48.41604162720937 9.86762360068522)" font-family="sans-serif">DIRECTED</text></g><g class="relationship" transform="translate(244.24478307604443 16.17368455131583) rotate(202.0329041945164)"><path class="outline" fill="#A5ABB6" stroke="none" d="M 24.018736134675446,-6.953439040707552 L 24.277555179777966,-5.987513214418485 A 99.59187045398834 99.59187045398834 0 0 1 30.74975186144583,-7.4922409457203685 L 30.55592001511932,-8.473275713376268 A 100.59187045398834 100.59187045398834 0 0 0 24.018736134675446,-6.953439040707552 Z M 66.31222427006304,-9.05842841835208 L 66.1505969317301,-8.071576553327034 A 99.59187045398834 99.59187045398834 0 0 1 72.66856447106703,-6.779433144996666 L 71.98734210691245,-3.8578007090842257 L 79.59924388222181,-5.67685303462141 L 73.57686095660645,-10.674943059546587 L 72.89563859245187,-7.753310623634146 A 100.59187045398834 100.59187045398834 0 0 0 66.31222427006304,-9.05842841835208"/><text text-anchor="middle" pointer-events="none" font-size="8px" fill="#000000" x="48.41604162720936" y="-6.867623600685221" transform="rotate(180 48.41604162720936 -9.86762360068522)" font-family="sans-serif">WROTE</text></g><g class="relationship" transform="translate(47.05217458050589 -47.64688268563765) rotate(373.8311672514395)"><path class="outline" fill="#A5ABB6" stroke="none" d="M 24.018736134675446,6.953439040707552 L 24.277555179777966,5.987513214418485 A 99.39705167346007 99.39705167346007 0 0 0 25.308888090711392,6.257937948646571 L 25.060444935975536,7.226584426400393 A 100.39705167346007 100.39705167346007 0 0 1 24.018736134675446,6.953439040707552 Z M 71.7480690522884,7.991300184528342 L 71.53148237459288,7.015036792279702 A 99.39705167346007 99.39705167346007 0 0 0 72.57111847086001,6.778533309440569 L 71.88998016008524,3.8568812764984375 L 79.50182959952078,5.6761525897897815 L 73.47930288522637,10.674069353363409 L 72.7981645744516,7.752417320421278 A 100.39705167346007 100.39705167346007 0 0 1 71.7480690522884,7.991300184528342"/><text text-anchor="middle" pointer-events="none" font-size="8px" fill="#000000" x="48.367369815477424" y="12.86098787066949" font-family="sans-serif">DIRECTED</text></g><g class="relationship" transform="translate(47.05217458050589 -47.64688268563765) rotate(373.8311672514395)"><path class="outline" fill="#A5ABB6" stroke="none" d="M 24.018736134675446,-6.953439040707552 L 24.277555179777966,-5.987513214418485 A 99.39705167346007 99.39705167346007 0 0 1 30.70170624640213,-7.482299458857128 L 30.507518404725325,-8.463263822198073 A 100.39705167346007 100.39705167346007 0 0 0 24.018736134675446,-6.953439040707552 Z M 66.26341624384227,-9.048924348753602 L 66.10145918640976,-8.06212654193206 A 99.39705167346007 99.39705167346007 0 0 1 72.57111847086001,-6.778533309440569 L 71.88998016008524,-3.8568812764984375 L 79.50182959952078,-5.6761525897897815 L 73.47930288522637,-10.674069353363409 L 72.7981645744516,-7.752417320421278 A 100.39705167346007 100.39705167346007 0 0 0 66.26341624384227,-9.048924348753602"/><text text-anchor="middle" pointer-events="none" font-size="8px" fill="#000000" x="48.367369815477396" y="-6.86098787066949" font-family="sans-serif">WROTE</text></g><g class="relationship" transform="translate(-60.843232205281694 95.33584599195865) rotate(432.1201967837678)"><path class="outline" fill="#A5ABB6" stroke="none" d="M 21.40063509461097,12.933012701892217 L 21.90063509461097,12.06698729810778 A 57.17586718177771 57.17586718177771 0 0 0 31.330120527053495,16.421760583667798 L 30.995041251429456,17.36395052155043 A 58.17586718177771 58.17586718177771 0 0 1 21.40063509461097,12.933012701892217 Z M 66.48528758891564,18.484555805973898 L 66.21031585788097,17.523103494555485 A 57.17586718177771 57.17586718177771 0 0 0 75.89574818053754,13.771884144462499 L 74.56264136043835,11.084352524889432 L 82.38883976289122,11.109223500826573 L 77.67322394066979,17.355259637226588 L 76.3401171205706,14.667728017653522 A 58.17586718177771 58.17586718177771 0 0 1 66.48528758891564,18.484555805973898"/><text text-anchor="middle" pointer-events="none" font-size="8px" fill="#000000" x="48.668359082166155" y="23.198371597447995" font-family="sans-serif">WROTE</text></g><g class="relationship" transform="translate(-60.843232205281694 95.33584599195865) rotate(432.1201967837678)"><path class="outline" fill="#A5ABB6" stroke="none" d="M 25 0.5 L 25.447155796333398 0.5 L 25.447155796333398 -0.5 L 25 -0.5 Z M 72.33778079633339 0.5 L 72.7849365926668 0.5 L 72.7849365926668 3.5 L 79.7849365926668 0 L 72.7849365926668 -3.5 L 72.7849365926668 -0.5 L 72.33778079633339 -0.5 Z"/><text text-anchor="middle" pointer-events="none" font-size="8px" fill="#000000" x="48.8924682963334" y="3" font-family="sans-serif">DIRECTED</text></g><g class="relationship" transform="translate(-60.843232205281694 95.33584599195865) rotate(432.1201967837678)"><path class="outline" fill="#A5ABB6" stroke="none" d="M 21.40063509461097,-12.933012701892217 L 21.90063509461097,-12.06698729810778 A 57.17586718177771 57.17586718177771 0 0 1 24.06245110492492,-13.253700221110293 L 23.600261043223558,-14.14048111110764 A 58.17586718177771 58.17586718177771 0 0 0 21.40063509461097,-12.933012701892217 Z M 74.0686970427312,-15.73402305330319 L 73.66337212881884,-14.8198503594636 A 57.17586718177771 57.17586718177771 0 0 1 75.89574818053754,-13.771884144462499 L 74.56264136043835,-11.084352524889432 L 82.38883976289122,-11.109223500826573 L 77.67322394066979,-17.355259637226588 L 76.3401171205706,-14.667728017653522 A 58.17586718177771 58.17586718177771 0 0 0 74.0686970427312,-15.73402305330319"/><text text-anchor="middle" pointer-events="none" font-size="8px" fill="#000000" x="48.66835908216614" y="-17.198371597447995" font-family="sans-serif">PRODUCED</text></g></g><g class="layer nodes"><g class="node" transform="translate(135.7778567783348,259.06753330622394)"><circle class="outline" cx="0" cy="0" r="25" fill="#F79767" stroke="#f36924" stroke-width="2px"/><text text-anchor="middle" pointer-events="none" font-family="sans-serif" dy="1.5625" font-size="25" fill="#FFFFFF"/><text text-anchor="middle" pointer-events="none" font-family="sans-serif" dy="1.5625" font-size="25" fill="#FFFFFF"/><text text-anchor="middle" pointer-events="none" x="0" y="0" font-size="10px" fill="#FFFFFF" font-family="sans-serif"> Cameron</text><text text-anchor="middle" pointer-events="none" x="0" y="10" font-size="10px" fill="#FFFFFF" font-family="sans-serif"> Crowe</text></g><g class="node" transform="translate(226.94699147383508,206.6230918079389)"><circle class="outline" cx="0" cy="0" r="25" fill="#57C7E3" stroke="#23b3d7" stroke-width="2px"/><text text-anchor="middle" pointer-events="none" font-family="sans-serif" dy="1.5625" font-size="25" fill="#2A2C34"/><text text-anchor="middle" pointer-events="none" font-family="sans-serif" dy="1.5625" font-size="25" fill="#2A2C34"/><text text-anchor="middle" pointer-events="none" x="0" y="0" font-size="10px" fill="#2A2C34" font-family="sans-serif"> Jerry</text><text text-anchor="middle" pointer-events="none" x="0" y="10" font-size="10px" fill="#2A2C34" font-family="sans-serif"> Maguire</text></g><g class="node" transform="translate(244.24478307604443,16.17368455131583)"><circle class="outline" cx="0" cy="0" r="25" fill="#F79767" stroke="#f36924" stroke-width="2px"/><text text-anchor="middle" pointer-events="none" font-family="sans-serif" dy="1.5625" font-size="25" fill="#FFFFFF"/><text text-anchor="middle" pointer-events="none" font-family="sans-serif" dy="1.5625" font-size="25" fill="#FFFFFF"/><text text-anchor="middle" pointer-events="none" x="0" y="0" font-size="10px" fill="#FFFFFF" font-family="sans-serif"> Lana</text><text text-anchor="middle" pointer-events="none" x="0" y="10" font-size="10px" fill="#FFFFFF" font-family="sans-serif"> Wacho…</text></g><g class="node" transform="translate(147.88994044139858,-22.820581870438637)"><circle class="outline" cx="0" cy="0" r="25" fill="#57C7E3" stroke="#23b3d7" stroke-width="2px"/><text text-anchor="middle" pointer-events="none" font-family="sans-serif" dy="1.5625" font-size="25" fill="#2A2C34"/><text text-anchor="middle" pointer-events="none" font-family="sans-serif" dy="1.5625" font-size="25" fill="#2A2C34"/><text text-anchor="middle" pointer-events="none" x="0" y="0" font-size="10px" fill="#2A2C34" font-family="sans-serif"> Speed</text><text text-anchor="middle" pointer-events="none" x="0" y="10" font-size="10px" fill="#2A2C34" font-family="sans-serif"> Racer</text></g><g class="node" transform="translate(47.05217458050589,-47.64688268563765)"><circle class="outline" cx="0" cy="0" r="25" fill="#F79767" stroke="#f36924" stroke-width="2px"/><text text-anchor="middle" pointer-events="none" font-family="sans-serif" dy="1.5625" font-size="25" fill="#FFFFFF"/><text text-anchor="middle" pointer-events="none" font-family="sans-serif" dy="1.5625" font-size="25" fill="#FFFFFF"/><text text-anchor="middle" pointer-events="none" x="0" y="0" font-size="10px" fill="#FFFFFF" font-family="sans-serif"> Lilly</text><text text-anchor="middle" pointer-events="none" x="0" y="10" font-size="10px" fill="#FFFFFF" font-family="sans-serif"> Wacho…</text></g><g class="node" transform="translate(-60.843232205281694,95.33584599195865)"><circle class="outline" cx="0" cy="0" r="25" fill="#F79767" stroke="#f36924" stroke-width="2px"/><text text-anchor="middle" pointer-events="none" font-family="sans-serif" dy="1.5625" font-size="25" fill="#FFFFFF"/><text text-anchor="middle" pointer-events="none" font-family="sans-serif" dy="1.5625" font-size="25" fill="#FFFFFF"/><text text-anchor="middle" pointer-events="none" x="0" y="0" font-size="10px" fill="#FFFFFF" font-family="sans-serif"> Nancy</text><text text-anchor="middle" pointer-events="none" x="0" y="10" font-size="10px" fill="#FFFFFF" font-family="sans-serif"> Meyers</text></g><g class="node" transform="translate(-28.672039283030458,195.0599518174234)"><circle class="outline" cx="0" cy="0" r="25" fill="#57C7E3" stroke="#23b3d7" stroke-width="2px"/><text text-anchor="middle" pointer-events="none" font-family="sans-serif" dy="1.5625" font-size="25" fill="#2A2C34"/><text text-anchor="middle" pointer-events="none" x="0" y="5" font-size="10px" fill="#2A2C34" font-family="sans-serif"> Somethi…</text></g></g></svg>