<svg xmlns="http://www.w3.org/2000/svg" width="264.69390869140625" height="256.148193359375" viewBox="-32.696346282958984 -17.569782257080078 264.69390869140625 256.148193359375"><title>Neo4j Graph Visualization</title><desc>Created using Neo4j (http://www.neo4j.com/)</desc><g class="layer relationships"><g class="relationship" transform="translate(91.41226325256552 209.57840419439952) rotate(274.4811513153771)"><path class="outline" fill="#A5ABB6" stroke="none" d="M 25 0.5 L 28.675950213936666 0.5 L 28.675950213936666 -0.5 L 25 -0.5 Z M 74.23845021393666 0.5 L 77.91440042787333 0.5 L 77.91440042787333 3.5 L 84.91440042787333 0 L 77.91440042787333 -3.5 L 77.91440042787333 -0.5 L 74.23845021393666 -0.5 Z"/><text text-anchor="middle" pointer-events="none" font-size="8px" fill="#000000" x="51.457200213936666" y="3" font-family="sans-serif">ACTED_IN</text></g><g class="relationship" transform="translate(202.99756382013837 144.6730019817551) rotate(203.4477618572016)"><path class="outline" fill="#A5ABB6" stroke="none" d="M 25 0.5 L 29.852908648352603 0.5 L 29.852908648352603 -0.5 L 25 -0.5 Z M 75.41540864835261 0.5 L 80.2683172967052 0.5 L 80.2683172967052 3.5 L 87.2683172967052 0 L 80.2683172967052 -3.5 L 80.2683172967052 -0.5 L 75.41540864835261 -0.5 Z"/><text text-anchor="middle" pointer-events="none" font-size="8px" fill="#000000" x="52.6341586483526" y="3" transform="rotate(180 52.6341586483526 0)" font-family="sans-serif">ACTED_IN</text></g><g class="relationship" transform="translate(168.1731368883 11.430216833275617) rotate(487.5858740602276)"><path class="outline" fill="#A5ABB6" stroke="none" d="M 25 0.5 L 31.16546839103613 0.5 L 31.16546839103613 -0.5 L 25 -0.5 Z M 73.60296839103613 0.5 L 79.76843678207226 0.5 L 79.76843678207226 3.5 L 86.76843678207226 0 L 79.76843678207226 -3.5 L 79.76843678207226 -0.5 L 73.60296839103613 -0.5 Z"/><text text-anchor="middle" pointer-events="none" font-size="8px" fill="#000000" x="52.38421839103613" y="3" transform="rotate(180 52.38421839103613 0)" font-family="sans-serif">WRITTEN</text></g><g class="relationship" transform="translate(30.444658129573142 11.901705078003827) rotate(411.7082123205751)"><path class="outline" fill="#A5ABB6" stroke="none" d="M 25 0.5 L 31.40445270214228 0.5 L 31.40445270214228 -0.5 L 25 -0.5 Z M 73.84195270214228 0.5 L 80.24640540428456 0.5 L 80.24640540428456 3.5 L 87.24640540428456 0 L 80.24640540428456 -3.5 L 80.24640540428456 -0.5 L 73.84195270214228 -0.5 Z"/><text text-anchor="middle" pointer-events="none" font-size="8px" fill="#000000" x="52.62320270214228" y="3" font-family="sans-serif">WRITTEN</text></g><g class="relationship" transform="translate(-3.6963459361289854 136.4047933512063) rotate(340.65529939587555)"><path class="outline" fill="#A5ABB6" stroke="none" d="M 25 0.5 L 28.005212939619582 0.5 L 28.005212939619582 -0.5 L 25 -0.5 Z M 74.89583793961958 0.5 L 77.90105087923916 0.5 L 77.90105087923916 3.5 L 84.90105087923916 0 L 77.90105087923916 -3.5 L 77.90105087923916 -0.5 L 74.89583793961958 -0.5 Z"/><text text-anchor="middle" pointer-events="none" font-size="8px" fill="#000000" x="51.45052543961958" y="3" font-family="sans-serif">DIRECTED</text></g></g><g class="layer nodes"><g class="node" transform="translate(100,100.00000213005272)"><circle class="outline" cx="0" cy="0" r="25" fill="#57C7E3" stroke="#23b3d7" stroke-width="2px"/><text text-anchor="middle" pointer-events="none" font-family="sans-serif" dy="1.5625" font-size="25" fill="#2A2C34"/><text text-anchor="middle" pointer-events="none" font-family="sans-serif" dy="1.5625" font-size="25" fill="#2A2C34"/><text text-anchor="middle" pointer-events="none" font-family="sans-serif" dy="1.5625" font-size="25" fill="#2A2C34"/><text text-anchor="middle" pointer-events="none" x="0" y="-5" font-size="10px" fill="#2A2C34" font-family="sans-serif"> Captain</text><text text-anchor="middle" pointer-events="none" x="0" y="5" font-size="10px" fill="#2A2C34" font-family="sans-serif"> America:</text><text text-anchor="middle" pointer-events="none" x="0" y="15" font-size="10px" fill="#2A2C34" font-family="sans-serif"> The Fi…</text></g><g class="node" transform="translate(91.41226325256552,209.57840419439952)"><circle class="outline" cx="0" cy="0" r="25" fill="#F79767" stroke="#f36924" stroke-width="2px"/><text text-anchor="middle" pointer-events="none" font-family="sans-serif" dy="1.5625" font-size="25" fill="#FFFFFF"/><text text-anchor="middle" pointer-events="none" font-family="sans-serif" dy="1.5625" font-size="25" fill="#FFFFFF"/><text text-anchor="middle" pointer-events="none" x="0" y="0" font-size="10px" fill="#FFFFFF" font-family="sans-serif"> Chris</text><text text-anchor="middle" pointer-events="none" x="0" y="10" font-size="10px" fill="#FFFFFF" font-family="sans-serif"> Evans</text></g><g class="node" transform="translate(202.99756382013837,144.6730019817551)"><circle class="outline" cx="0" cy="0" r="25" fill="#F79767" stroke="#f36924" stroke-width="2px"/><text text-anchor="middle" pointer-events="none" font-family="sans-serif" dy="1.5625" font-size="25" fill="#FFFFFF"/><text text-anchor="middle" pointer-events="none" font-family="sans-serif" dy="1.5625" font-size="25" fill="#FFFFFF"/><text text-anchor="middle" pointer-events="none" x="0" y="0" font-size="10px" fill="#FFFFFF" font-family="sans-serif"> Hayley</text><text text-anchor="middle" pointer-events="none" x="0" y="10" font-size="10px" fill="#FFFFFF" font-family="sans-serif"> Atwell</text></g><g class="node" transform="translate(168.1731368883,11.430216833275617)"><circle class="outline" cx="0" cy="0" r="25" fill="#F79767" stroke="#f36924" stroke-width="2px"/><text text-anchor="middle" pointer-events="none" font-family="sans-serif" dy="1.5625" font-size="25" fill="#FFFFFF"/><text text-anchor="middle" pointer-events="none" x="0" y="5" font-size="10px" fill="#FFFFFF" font-family="sans-serif"> Christop…</text></g><g class="node" transform="translate(30.444658129573142,11.901705078003827)"><circle class="outline" cx="0" cy="0" r="25" fill="#F79767" stroke="#f36924" stroke-width="2px"/><text text-anchor="middle" pointer-events="none" font-family="sans-serif" dy="1.5625" font-size="25" fill="#FFFFFF"/><text text-anchor="middle" pointer-events="none" font-family="sans-serif" dy="1.5625" font-size="25" fill="#FFFFFF"/><text text-anchor="middle" pointer-events="none" x="0" y="0" font-size="10px" fill="#FFFFFF" font-family="sans-serif"> Stephen</text><text text-anchor="middle" pointer-events="none" x="0" y="10" font-size="10px" fill="#FFFFFF" font-family="sans-serif"> McFeely</text></g><g class="node" transform="translate(-3.6963459361289854,136.4047933512063)"><circle class="outline" cx="0" cy="0" r="25" fill="#F79767" stroke="#f36924" stroke-width="2px"/><text text-anchor="middle" pointer-events="none" font-family="sans-serif" dy="1.5625" font-size="25" fill="#FFFFFF"/><text text-anchor="middle" pointer-events="none" font-family="sans-serif" dy="1.5625" font-size="25" fill="#FFFFFF"/><text text-anchor="middle" pointer-events="none" x="0" y="0" font-size="10px" fill="#FFFFFF" font-family="sans-serif"> Joe</text><text text-anchor="middle" pointer-events="none" x="0" y="10" font-size="10px" fill="#FFFFFF" font-family="sans-serif"> Johnston</text></g></g></svg>