<svg xmlns="http://www.w3.org/2000/svg" width="601.0206909179688" height="585.8258056640625" viewBox="-204.29869079589844 -180.78305053710938 601.0206909179688 585.8258056640625"><title>Neo4j Graph Visualization</title><desc>Created using Neo4j (http://www.neo4j.com/)</desc><g class="layer relationships"><g class="relationship" transform="translate(175.35073318633042 376.0427742980668) rotate(259.4453080400181)"><path class="outline" fill="#A5ABB6" stroke="none" d="M 21.40063509461097,12.933012701892217 L 21.90063509461097,12.06698729810778 A 55.589209884004994 55.589209884004994 0 0 0 23.35695234095194,12.878918379982679 L 22.88315018131304,13.759549695302276 A 56.589209884004994 56.589209884004994 0 0 1 21.40063509461097,12.933012701892217 Z M 73.26459823931485,15.372613063757555 L 72.84809908247888,14.463476961540216 A 55.589209884004994 55.589209884004994 0 0 0 74.353371648226,13.746367132773624 L 73.02263866984411,11.057659312974886 L 80.8488120574867,11.089441486515684 L 76.12768228606852,17.33131089250527 L 74.79694930768663,14.642603072706535 A 56.589209884004994 56.589209884004994 0 0 1 73.26459823931485,15.372613063757555"/><text text-anchor="middle" pointer-events="none" font-size="8px" fill="#000000" x="47.90035092080971" y="22.985803113948315" transform="rotate(180 47.90035092080971 19.985803113948315)" font-family="sans-serif">PRODUCED</text></g><g class="relationship" transform="translate(175.35073318633042 376.0427742980668) rotate(259.4453080400181)"><path class="outline" fill="#A5ABB6" stroke="none" d="M 25 0.5 L 26.23868340290474 0.5 L 26.23868340290474 -0.5 L 25 -0.5 Z M 70.01602715290474 0.5 L 71.25471055580948 0.5 L 71.25471055580948 3.5 L 78.25471055580948 0 L 71.25471055580948 -3.5 L 71.25471055580948 -0.5 L 70.01602715290474 -0.5 Z"/><text text-anchor="middle" pointer-events="none" font-size="8px" fill="#000000" x="48.12735527790474" y="3" transform="rotate(180 48.12735527790474 0)" font-family="sans-serif">DIRECT…</text></g><g class="relationship" transform="translate(175.35073318633042 376.0427742980668) rotate(259.4453080400181)"><path class="outline" fill="#A5ABB6" stroke="none" d="M 21.40063509461097,-12.933012701892217 L 21.90063509461097,-12.06698729810778 A 55.589209884004994 55.589209884004994 0 0 1 30.58663648513697,-16.127058086558044 L 30.24288985532609,-17.066120520315067 A 56.589209884004994 56.589209884004994 0 0 0 21.40063509461097,-12.933012701892217 Z M 65.70841568497308,-18.201620645141723 L 65.42544344201045,-17.242492546443373 A 55.589209884004994 55.589209884004994 0 0 1 74.353371648226,-13.746367132773624 L 73.02263866984411,-11.057659312974886 L 80.8488120574867,-11.089441486515684 L 76.12768228606852,-17.33131089250527 L 74.79694930768663,-14.642603072706535 A 56.589209884004994 56.589209884004994 0 0 0 65.70841568497308,-18.201620645141723"/><text text-anchor="middle" pointer-events="none" font-size="8px" fill="#000000" x="47.90035092080969" y="-16.985803113948315" transform="rotate(180 47.90035092080969 -19.985803113948315)" font-family="sans-serif">WROTE</text></g><g class="relationship" transform="translate(356.4232554566901 195.07621044649116) rotate(276.02188639089303)"><path class="outline" fill="#A5ABB6" stroke="none" d="M 24.018736134675446,6.953439040707552 L 24.277555179777966,5.987513214418485 A 107.10444985782927 107.10444985782927 0 0 0 32.60702670630587,7.867000387562669 L 32.42597727336778,8.850474384591976 A 108.10444985782927 108.10444985782927 0 0 1 24.018736134675446,6.953439040707552 Z M 68.19587962808627,9.416646277284542 L 68.04604626756156,8.427935013024907 A 107.10444985782927 107.10444985782927 0 0 0 76.43082802275565,6.813003787549024 L 75.74646986293197,3.892104284128415 L 83.36031989070769,5.702984665197233 L 77.34330556918721,10.707536458776504 L 76.65894740936353,7.7866369553558945 A 108.10444985782927 108.10444985782927 0 0 1 68.19587962808627,9.416646277284542"/><text text-anchor="middle" pointer-events="none" font-size="8px" fill="#000000" x="50.29525901230715" y="13.12353226254858" font-family="sans-serif">WROTE</text></g><g class="relationship" transform="translate(356.4232554566901 195.07621044649116) rotate(276.02188639089303)"><path class="outline" fill="#A5ABB6" stroke="none" d="M 24.018736134675446,-6.953439040707552 L 24.277555179777966,-5.987513214418485 A 107.10444985782927 107.10444985782927 0 0 1 27.193983081894935,-6.725229947028879 L 26.962393791541057,-7.698043598553866 A 108.10444985782927 108.10444985782927 0 0 0 24.018736134675446,-6.953439040707552 Z M 73.6931987940859,-8.437706459608535 L 73.49251351050687,-7.458050695089796 A 107.10444985782927 107.10444985782927 0 0 1 76.43082802275565,-6.813003787549024 L 75.74646986293197,-3.892104284128415 L 83.36031989070769,-5.702984665197233 L 77.34330556918721,-10.707536458776504 L 76.65894740936353,-7.7866369553558945 A 108.10444985782927 108.10444985782927 0 0 0 73.6931987940859,-8.437706459608535"/><text text-anchor="middle" pointer-events="none" font-size="8px" fill="#000000" x="50.29525901230715" y="-7.123532262548579" font-family="sans-serif">DIRECTED</text></g><g class="relationship" transform="translate(261.0915859037905 92.20575530604833) rotate(357.72485618526684)"><path class="outline" fill="#A5ABB6" stroke="none" d="M 24.018736134675446,6.953439040707552 L 24.277555179777966,5.987513214418485 A 105.13230261522038 105.13230261522038 0 0 0 32.11864928625055,7.770159846125338 L 31.93441335129992,8.753041894121367 A 106.13230261522038 106.13230261522038 0 0 1 24.018736134675446,6.953439040707552 Z M 67.70110624127541,9.32408507805927 L 67.54834116891118,8.33582254580098 A 105.13230261522038 105.13230261522038 0 0 0 75.44234699272408,6.804399072785729 L 74.75879258428546,3.883311369428616 L 82.37214403529711,5.696286736988475 L 76.35375287064224,10.699182677261879 L 75.67019846220362,7.778094973904767 A 106.13230261522038 106.13230261522038 0 0 1 67.70110624127541,9.32408507805927"/><text text-anchor="middle" pointer-events="none" font-size="8px" fill="#000000" x="49.80151005624181" y="13.056348967310967" font-family="sans-serif">WROTE</text></g><g class="relationship" transform="translate(261.0915859037905 92.20575530604833) rotate(357.72485618526684)"><path class="outline" fill="#A5ABB6" stroke="none" d="M 24.018736134675446,-6.953439040707552 L 24.277555179777966,-5.987513214418485 A 105.13230261522038 105.13230261522038 0 0 1 26.71038833705932,-6.608349433901054 L 26.474709973714578,-7.5801805452836675 A 106.13230261522038 106.13230261522038 0 0 0 24.018736134675446,-6.953439040707552 Z M 73.19546865475658,-8.326113944138513 L 72.99093458955893,-7.347254497550935 A 105.13230261522038 105.13230261522038 0 0 1 75.44234699272408,-6.804399072785729 L 74.75879258428546,-3.883311369428616 L 82.37214403529711,-5.696286736988475 L 76.35375287064224,-10.699182677261879 L 75.67019846220362,-7.778094973904767 A 106.13230261522038 106.13230261522038 0 0 0 73.19546865475658,-8.326113944138513"/><text text-anchor="middle" pointer-events="none" font-size="8px" fill="#000000" x="49.80151005624179" y="-7.056348967310967" font-family="sans-serif">DIRECTED</text></g><g class="relationship" transform="translate(276.1955044966681 -129.08258958364644) rotate(501.4459606391931)"><path class="outline" fill="#A5ABB6" stroke="none" d="M 21.40063509461097,12.933012701892217 L 21.90063509461097,12.06698729810778 A 57.28959773158297 57.28959773158297 0 0 0 24.11322892206748,13.280257886814788 L 23.651850136302972,14.167461142019853 A 58.28959773158297 58.28959773158297 0 0 1 21.40063509461097,12.933012701892217 Z M 74.12623856628899,15.759614685757747 L 73.72169289221394,14.845096890639923 A 57.28959773158297 57.28959773158297 0 0 0 76.00635420953755,13.77368677689017 L 74.67307969249033,11.086238347209608 L 82.4992796316334,11.110620975393438 L 77.7840535656005,17.356951349797587 L 76.45077904855329,14.669502920117026 A 58.28959773158297 58.28959773158297 0 0 1 74.12623856628899,15.759614685757747"/><text text-anchor="middle" pointer-events="none" font-size="8px" fill="#000000" x="48.72343721340339" y="23.2136088242259" transform="rotate(180 48.72343721340339 20.2136088242259)" font-family="sans-serif">PRODUCED</text></g><g class="relationship" transform="translate(276.1955044966681 -129.08258958364644) rotate(501.4459606391931)"><path class="outline" fill="#A5ABB6" stroke="none" d="M 25 0.5 L 31.060622856152385 0.5 L 31.060622856152385 -0.5 L 25 -0.5 Z M 66.83406035615238 0.5 L 72.89468321230477 0.5 L 72.89468321230477 3.5 L 79.89468321230477 0 L 72.89468321230477 -3.5 L 72.89468321230477 -0.5 L 66.83406035615238 -0.5 Z"/><text text-anchor="middle" pointer-events="none" font-size="8px" fill="#000000" x="48.947341606152385" y="3" transform="rotate(180 48.947341606152385 0)" font-family="sans-serif">WROTE</text></g><g class="relationship" transform="translate(276.1955044966681 -129.08258958364644) rotate(501.4459606391931)"><path class="outline" fill="#A5ABB6" stroke="none" d="M 21.40063509461097,-12.933012701892217 L 21.90063509461097,-12.06698729810778 A 57.28959773158297 57.28959773158297 0 0 1 26.28696543300327,-14.352882033045432 L 25.863529600183206,-15.258808131291858 A 58.28959773158297 58.28959773158297 0 0 0 21.40063509461097,-12.933012701892217 Z M 71.85017401386776,-16.70940121711842 L 71.4846758652689,-15.778589150495506 A 57.28959773158297 57.28959773158297 0 0 1 76.00635420953755,-13.77368677689017 L 74.67307969249033,-11.086238347209608 L 82.4992796316334,-11.110620975393438 L 77.7840535656005,-17.356951349797587 L 76.45077904855329,-14.669502920117026 A 58.28959773158297 58.28959773158297 0 0 0 71.85017401386776,-16.70940121711842"/><text text-anchor="middle" pointer-events="none" font-size="8px" fill="#000000" x="48.7234372134034" y="-17.2136088242259" transform="rotate(180 48.7234372134034 -20.2136088242259)" font-family="sans-serif">DIRECTED</text></g><g class="relationship" transform="translate(67.79013186157273 -133.80565648944204) rotate(190.0910311964567)"><path class="outline" fill="#A5ABB6" stroke="none" d="M 21.40063509461097,12.933012701892217 L 21.90063509461097,12.06698729810778 A 54.91327878180612 54.91327878180612 0 0 0 25.21030998045848,13.829982114264077 L 24.77058091964239,14.72811259090642 A 55.91327878180612 55.91327878180612 0 0 1 21.40063509461097,12.933012701892217 Z M 70.66146064915863,16.206209076209973 L 70.28043870539494,15.28164308161005 A 54.91327878180612 54.91327878180612 0 0 0 73.69670437546645,13.735283665660987 L 72.36700250208187,11.04606576301391 L 80.19316312720706,11.080848944871484 L 75.46964020664589,17.32090753585709 L 74.13993833326131,14.631689633210012 A 55.91327878180612 55.91327878180612 0 0 1 70.66146064915863,16.206209076209973"/><text text-anchor="middle" pointer-events="none" font-size="8px" fill="#000000" x="47.5733967140829" y="22.89525069274992" transform="rotate(180 47.5733967140829 19.89525069274992)" font-family="sans-serif">DIRECTED</text></g><g class="relationship" transform="translate(67.79013186157273 -133.80565648944204) rotate(190.0910311964567)"><path class="outline" fill="#A5ABB6" stroke="none" d="M 25 0.5 L 26.35634365796635 0.5 L 26.35634365796635 -0.5 L 25 -0.5 Z M 69.24696865796635 0.5 L 70.6033123159327 0.5 L 70.6033123159327 3.5 L 77.6033123159327 0 L 70.6033123159327 -3.5 L 70.6033123159327 -0.5 L 69.24696865796635 -0.5 Z"/><text text-anchor="middle" pointer-events="none" font-size="8px" fill="#000000" x="47.80165615796635" y="3" transform="rotate(180 47.80165615796635 0)" font-family="sans-serif">PRODU…</text></g><g class="relationship" transform="translate(67.79013186157273 -133.80565648944204) rotate(190.0910311964567)"><path class="outline" fill="#A5ABB6" stroke="none" d="M 21.40063509461097,-12.933012701892217 L 21.90063509461097,-12.06698729810778 A 54.91327878180612 54.91327878180612 0 0 1 30.27069974272436,-16.00021462877023 L 29.923123069719118,-16.937866193256 A 55.91327878180612 55.91327878180612 0 0 0 21.40063509461097,-12.933012701892217 Z M 65.37739796430873,-18.079810723837163 L 65.09088063197143,-17.121735665049847 A 54.91327878180612 54.91327878180612 0 0 1 73.69670437546645,-13.735283665660987 L 72.36700250208187,-11.04606576301391 L 80.19316312720706,-11.080848944871484 L 75.46964020664589,-17.32090753585709 L 74.13993833326131,-14.631689633210012 A 55.91327878180612 55.91327878180612 0 0 0 65.37739796430873,-18.079810723837163"/><text text-anchor="middle" pointer-events="none" font-size="8px" fill="#000000" x="47.57339671408288" y="-16.89525069274992" transform="rotate(180 47.57339671408288 -19.89525069274992)" font-family="sans-serif">WROTE</text></g><g class="relationship" transform="translate(-37.064993866912964 53.28836335510435) rotate(204.45672462601016)"><path class="outline" fill="#A5ABB6" stroke="none" d="M 24.018736134675446,-6.953439040707552 L 24.277555179777966,-5.987513214418485 A 108.71161302522253 108.71161302522253 0 0 1 33.00542215204079,-7.94517386696252 L 32.826887694107796,-8.929107526987707 A 109.71161302522253 109.71161302522253 0 0 0 24.018736134675446,-6.953439040707552 Z M 68.5992390899575,-9.491366534653721 L 68.45171552714454,-8.502307993203843 A 108.71161302522253 108.71161302522253 0 0 1 77.2367958323649,-6.819910552982142 L 76.55179252626684,-3.8991622805980426 L 84.16604235227749,-5.708360884150645 L 78.15013357382901,-10.714241582827608 L 77.46513026773094,-7.793493310443509 A 109.71161302522253 109.71161302522253 0 0 0 68.5992390899575,-9.491366534653721"/><text text-anchor="middle" pointer-events="none" font-size="8px" fill="#000000" x="50.69784792308998" y="-7.178283952699104" transform="rotate(180 50.69784792308998 -10.178283952699104)" font-family="sans-serif">WROTE</text></g><g class="relationship" transform="translate(-37.064993866912964 53.28836335510435) rotate(204.45672462601016)"><path class="outline" fill="#A5ABB6" stroke="none" d="M 24.018736134675446,6.953439040707552 L 24.277555179777966,5.987513214418485 A 108.71161302522253 108.71161302522253 0 0 0 27.588659098226,6.8192239989010375 L 27.36029773677205,7.79280044099221 A 109.71161302522253 109.71161302522253 0 0 1 24.018736134675446,6.953439040707552 Z M 74.09884015610942,8.527422724823992 L 73.90118879994347,7.547150343592236 A 108.71161302522253 108.71161302522253 0 0 0 77.2367958323649,6.819910552982142 L 76.55179252626684,3.8991622805980426 L 84.16604235227749,5.708360884150645 L 78.15013357382901,10.714241582827608 L 77.46513026773094,7.793493310443509 A 109.71161302522253 109.71161302522253 0 0 1 74.09884015610942,8.527422724823992"/><text text-anchor="middle" pointer-events="none" font-size="8px" fill="#000000" x="50.697847923090016" y="13.178283952699104" transform="rotate(180 50.697847923090016 10.178283952699104)" font-family="sans-serif">DIRECTED</text></g><g class="relationship" transform="translate(-175.2986892063773 107.35109311549999) rotate(291.7364904719615)"><path class="outline" fill="#A5ABB6" stroke="none" d="M 24.018736134675446,-6.953439040707552 L 24.277555179777966,-5.987513214418485 A 104.826358866362 104.826358866362 0 0 1 26.635439897990018,-6.590059999538582 L 26.39911409546228,-7.561733872326997 A 105.826358866362 105.826358866362 0 0 0 24.018736134675446,-6.953439040707552 Z M 73.11825694417912,-8.308648538736293 L 72.91311293380596,-7.329916739412283 A 104.826358866362 104.826358866362 0 0 1 75.2890539467869,-6.80305122007016 L 74.60562543924652,-3.881934057907515 L 82.2188987430898,-5.695237562836408 L 76.20029195684072,-10.697874102953687 L 75.51686344930035,-7.776756940791041 A 105.826358866362 105.826358866362 0 0 0 73.11825694417912,-8.308648538736293"/><text text-anchor="middle" pointer-events="none" font-size="8px" fill="#000000" x="49.72494047739731" y="-7.045926913793394" font-family="sans-serif">DIRECTED</text></g><g class="relationship" transform="translate(-175.2986892063773 107.35109311549999) rotate(291.7364904719615)"><path class="outline" fill="#A5ABB6" stroke="none" d="M 24.018736134675446,6.953439040707552 L 24.277555179777966,5.987513214418485 A 104.826358866362 104.826358866362 0 0 0 32.04293629878515,7.755043304461665 L 31.858195769840073,8.737830634948324 A 105.826358866362 105.826358866362 0 0 1 24.018736134675446,6.953439040707552 Z M 67.62436948338907,9.309636496081012 L 67.47113964184531,8.32144591949141 A 104.826358866362 104.826358866362 0 0 0 75.2890539467869,6.80305122007016 L 74.60562543924652,3.881934057907515 L 82.2188987430898,5.695237562836408 L 76.20029195684072,10.697874102953687 L 75.51686344930035,7.776756940791041 A 105.826358866362 105.826358866362 0 0 1 67.62436948338907,9.309636496081012"/><text text-anchor="middle" pointer-events="none" font-size="8px" fill="#000000" x="49.72494047739733" y="13.045926913793394" font-family="sans-serif">WROTE</text></g><g class="relationship" transform="translate(-3.2325054899779935 249.9736212407345) rotate(501.0706280457804)"><path class="outline" fill="#A5ABB6" stroke="none" d="M 21.40063509461097,12.933012701892217 L 21.90063509461097,12.06698729810778 A 56.38913539590213 56.38913539590213 0 0 0 23.711945351878676,13.06887879599656 L 23.244066969714286,13.952671656062329 A 57.38913539590213 57.38913539590213 0 0 1 21.40063509461097,12.933012701892217 Z M 73.67031058600361,15.555858111679456 L 73.25951666776791,14.64412988641682 A 56.38913539590213 56.38913539590213 0 0 0 75.13081031058947,13.759318311017422 L 73.79887248202081,11.07120714872748 L 81.62505932736079,11.099481904738862 L 76.90672741534769,17.343466527404015 L 75.57478958677903,14.65535536511407 A 57.38913539590213 57.38913539590213 0 0 1 73.67031058600361,15.555858111679456"/><text text-anchor="middle" pointer-events="none" font-size="8px" fill="#000000" x="48.28745693700729" y="23.092969640412967" transform="rotate(180 48.28745693700729 20.092969640412967)" font-family="sans-serif">PRODUCED</text></g><g class="relationship" transform="translate(-3.2325054899779935 249.9736212407345) rotate(501.0706280457804)"><path class="outline" fill="#A5ABB6" stroke="none" d="M 25 0.5 L 25.067680339888483 0.5 L 25.067680339888483 -0.5 L 25 -0.5 Z M 71.95830533988848 0.5 L 72.02598567977697 0.5 L 72.02598567977697 3.5 L 79.02598567977697 0 L 72.02598567977697 -3.5 L 72.02598567977697 -0.5 L 71.95830533988848 -0.5 Z"/><text text-anchor="middle" pointer-events="none" font-size="8px" fill="#000000" x="48.51299283988848" y="3" transform="rotate(180 48.51299283988848 0)" font-family="sans-serif">DIRECTED</text></g><g class="relationship" transform="translate(-3.2325054899779935 249.9736212407345) rotate(501.0706280457804)"><path class="outline" fill="#A5ABB6" stroke="none" d="M 21.40063509461097,-12.933012701892217 L 21.90063509461097,-12.06698729810778 A 56.38913539590213 56.38913539590213 0 0 1 30.961151418450598,-16.2761557028565 L 30.621829823257244,-17.21682613134643 A 57.38913539590213 57.38913539590213 0 0 0 21.40063509461097,-12.933012701892217 Z M 66.10010420741355,-18.344776279569913 L 65.82122038551171,-17.384451431468285 A 56.38913539590213 56.38913539590213 0 0 1 75.13081031058947,-13.759318311017422 L 73.79887248202081,-11.07120714872748 L 81.62505932736079,-11.099481904738862 L 76.90672741534769,-17.343466527404015 L 75.57478958677903,-14.65535536511407 A 57.38913539590213 57.38913539590213 0 0 0 66.10010420741355,-18.344776279569913"/><text text-anchor="middle" pointer-events="none" font-size="8px" fill="#000000" x="48.287456937007306" y="-17.092969640412967" transform="rotate(180 48.287456937007306 -20.092969640412967)" font-family="sans-serif">WROTE</text></g></g><g class="layer nodes"><g class="node" transform="translate(175.35073318633042,376.0427742980668)"><circle class="outline" cx="0" cy="0" r="25" fill="#F79767" stroke="#f36924" stroke-width="2px"/><text text-anchor="middle" pointer-events="none" font-family="sans-serif" dy="1.5625" font-size="25" fill="#FFFFFF"/><text text-anchor="middle" pointer-events="none" font-family="sans-serif" dy="1.5625" font-size="25" fill="#FFFFFF"/><text text-anchor="middle" pointer-events="none" x="0" y="0" font-size="10px" fill="#FFFFFF" font-family="sans-serif"> Cameron</text><text text-anchor="middle" pointer-events="none" x="0" y="10" font-size="10px" fill="#FFFFFF" font-family="sans-serif"> Crowe</text></g><g class="node" transform="translate(156.43715349334033,274.5350812144344)"><circle class="outline" cx="0" cy="0" r="25" fill="#57C7E3" stroke="#23b3d7" stroke-width="2px"/><text text-anchor="middle" pointer-events="none" font-family="sans-serif" dy="1.5625" font-size="25" fill="#2A2C34"/><text text-anchor="middle" pointer-events="none" font-family="sans-serif" dy="1.5625" font-size="25" fill="#2A2C34"/><text text-anchor="middle" pointer-events="none" x="0" y="0" font-size="10px" fill="#2A2C34" font-family="sans-serif"> Jerry</text><text text-anchor="middle" pointer-events="none" x="0" y="10" font-size="10px" fill="#2A2C34" font-family="sans-serif"> Maguire</text></g><g class="node" transform="translate(356.4232554566901,195.07621044649116)"><circle class="outline" cx="0" cy="0" r="25" fill="#F79767" stroke="#f36924" stroke-width="2px"/><text text-anchor="middle" pointer-events="none" font-family="sans-serif" dy="1.5625" font-size="25" fill="#FFFFFF"/><text text-anchor="middle" pointer-events="none" font-family="sans-serif" dy="1.5625" font-size="25" fill="#FFFFFF"/><text text-anchor="middle" pointer-events="none" x="0" y="0" font-size="10px" fill="#FFFFFF" font-family="sans-serif"> Lana</text><text text-anchor="middle" pointer-events="none" x="0" y="10" font-size="10px" fill="#FFFFFF" font-family="sans-serif"> Wacho…</text></g><g class="node" transform="translate(367.72200558427085,87.96936771469686)"><circle class="outline" cx="0" cy="0" r="25" fill="#57C7E3" stroke="#23b3d7" stroke-width="2px"/><text text-anchor="middle" pointer-events="none" font-family="sans-serif" dy="1.5625" font-size="25" fill="#2A2C34"/><text text-anchor="middle" pointer-events="none" font-family="sans-serif" dy="1.5625" font-size="25" fill="#2A2C34"/><text text-anchor="middle" pointer-events="none" x="0" y="0" font-size="10px" fill="#2A2C34" font-family="sans-serif"> Speed</text><text text-anchor="middle" pointer-events="none" x="0" y="10" font-size="10px" fill="#2A2C34" font-family="sans-serif"> Racer</text></g><g class="node" transform="translate(261.0915859037905,92.20575530604833)"><circle class="outline" cx="0" cy="0" r="25" fill="#F79767" stroke="#f36924" stroke-width="2px"/><text text-anchor="middle" pointer-events="none" font-family="sans-serif" dy="1.5625" font-size="25" fill="#FFFFFF"/><text text-anchor="middle" pointer-events="none" font-family="sans-serif" dy="1.5625" font-size="25" fill="#FFFFFF"/><text text-anchor="middle" pointer-events="none" x="0" y="0" font-size="10px" fill="#FFFFFF" font-family="sans-serif"> Andy</text><text text-anchor="middle" pointer-events="none" x="0" y="10" font-size="10px" fill="#FFFFFF" font-family="sans-serif"> Wacho…</text></g><g class="node" transform="translate(276.1955044966681,-129.08258958364644)"><circle class="outline" cx="0" cy="0" r="25" fill="#F79767" stroke="#f36924" stroke-width="2px"/><text text-anchor="middle" pointer-events="none" font-family="sans-serif" dy="1.5625" font-size="25" fill="#FFFFFF"/><text text-anchor="middle" pointer-events="none" font-family="sans-serif" dy="1.5625" font-size="25" fill="#FFFFFF"/><text text-anchor="middle" pointer-events="none" x="0" y="0" font-size="10px" fill="#FFFFFF" font-family="sans-serif"> Nancy</text><text text-anchor="middle" pointer-events="none" x="0" y="10" font-size="10px" fill="#FFFFFF" font-family="sans-serif"> Meyers</text></g><g class="node" transform="translate(194.1656935295943,-63.70671728418177)"><circle class="outline" cx="0" cy="0" r="25" fill="#57C7E3" stroke="#23b3d7" stroke-width="2px"/><text text-anchor="middle" pointer-events="none" font-family="sans-serif" dy="1.5625" font-size="25" fill="#2A2C34"/><text text-anchor="middle" pointer-events="none" x="0" y="5" font-size="10px" fill="#2A2C34" font-family="sans-serif"> Somethi…</text></g><g class="node" transform="translate(67.79013186157273,-133.80565648944204)"><circle class="outline" cx="0" cy="0" r="25" fill="#F79767" stroke="#f36924" stroke-width="2px"/><text text-anchor="middle" pointer-events="none" font-family="sans-serif" dy="1.5625" font-size="25" fill="#FFFFFF"/><text text-anchor="middle" pointer-events="none" font-family="sans-serif" dy="1.5625" font-size="25" fill="#FFFFFF"/><text text-anchor="middle" pointer-events="none" x="0" y="0" font-size="10px" fill="#FFFFFF" font-family="sans-serif"> Cameron</text><text text-anchor="middle" pointer-events="none" x="0" y="10" font-size="10px" fill="#FFFFFF" font-family="sans-serif"> Crowe</text></g><g class="node" transform="translate(-33.22597072116855,-151.7830511058462)"><circle class="outline" cx="0" cy="0" r="25" fill="#57C7E3" stroke="#23b3d7" stroke-width="2px"/><text text-anchor="middle" pointer-events="none" font-family="sans-serif" dy="1.5625" font-size="25" fill="#2A2C34"/><text text-anchor="middle" pointer-events="none" font-family="sans-serif" dy="1.5625" font-size="25" fill="#2A2C34"/><text text-anchor="middle" pointer-events="none" x="0" y="0" font-size="10px" fill="#2A2C34" font-family="sans-serif"> Jerry</text><text text-anchor="middle" pointer-events="none" x="0" y="10" font-size="10px" fill="#2A2C34" font-family="sans-serif"> Maguire</text></g><g class="node" transform="translate(-37.064993866912964,53.28836335510435)"><circle class="outline" cx="0" cy="0" r="25" fill="#F79767" stroke="#f36924" stroke-width="2px"/><text text-anchor="middle" pointer-events="none" font-family="sans-serif" dy="1.5625" font-size="25" fill="#FFFFFF"/><text text-anchor="middle" pointer-events="none" font-family="sans-serif" dy="1.5625" font-size="25" fill="#FFFFFF"/><text text-anchor="middle" pointer-events="none" x="0" y="0" font-size="10px" fill="#FFFFFF" font-family="sans-serif"> Lana</text><text text-anchor="middle" pointer-events="none" x="0" y="10" font-size="10px" fill="#FFFFFF" font-family="sans-serif"> Wacho…</text></g><g class="node" transform="translate(-135.83485543490383,8.366407398149283)"><circle class="outline" cx="0" cy="0" r="25" fill="#57C7E3" stroke="#23b3d7" stroke-width="2px"/><text text-anchor="middle" pointer-events="none" font-family="sans-serif" dy="1.5625" font-size="25" fill="#2A2C34"/><text text-anchor="middle" pointer-events="none" font-family="sans-serif" dy="1.5625" font-size="25" fill="#2A2C34"/><text text-anchor="middle" pointer-events="none" x="0" y="0" font-size="10px" fill="#2A2C34" font-family="sans-serif"> Speed</text><text text-anchor="middle" pointer-events="none" x="0" y="10" font-size="10px" fill="#2A2C34" font-family="sans-serif"> Racer</text></g><g class="node" transform="translate(-175.2986892063773,107.35109311549999)"><circle class="outline" cx="0" cy="0" r="25" fill="#F79767" stroke="#f36924" stroke-width="2px"/><text text-anchor="middle" pointer-events="none" font-family="sans-serif" dy="1.5625" font-size="25" fill="#FFFFFF"/><text text-anchor="middle" pointer-events="none" font-family="sans-serif" dy="1.5625" font-size="25" fill="#FFFFFF"/><text text-anchor="middle" pointer-events="none" x="0" y="0" font-size="10px" fill="#FFFFFF" font-family="sans-serif"> Lilly</text><text text-anchor="middle" pointer-events="none" x="0" y="10" font-size="10px" fill="#FFFFFF" font-family="sans-serif"> Wacho…</text></g><g class="node" transform="translate(-3.2325054899779935,249.9736212407345)"><circle class="outline" cx="0" cy="0" r="25" fill="#F79767" stroke="#f36924" stroke-width="2px"/><text text-anchor="middle" pointer-events="none" font-family="sans-serif" dy="1.5625" font-size="25" fill="#FFFFFF"/><text text-anchor="middle" pointer-events="none" font-family="sans-serif" dy="1.5625" font-size="25" fill="#FFFFFF"/><text text-anchor="middle" pointer-events="none" x="0" y="0" font-size="10px" fill="#FFFFFF" font-family="sans-serif"> Nancy</text><text text-anchor="middle" pointer-events="none" x="0" y="10" font-size="10px" fill="#FFFFFF" font-family="sans-serif"> Meyers</text></g><g class="node" transform="translate(-84.15651771409922,315.3395905382171)"><circle class="outline" cx="0" cy="0" r="25" fill="#57C7E3" stroke="#23b3d7" stroke-width="2px"/><text text-anchor="middle" pointer-events="none" font-family="sans-serif" dy="1.5625" font-size="25" fill="#2A2C34"/><text text-anchor="middle" pointer-events="none" x="0" y="5" font-size="10px" fill="#2A2C34" font-family="sans-serif"> Somethi…</text></g></g></svg>