<svg xmlns="http://www.w3.org/2000/svg" width="162.97195434570312" height="244.24365234375" viewBox="-2.103914260864258 -21.28845977783203 162.97195434570312 244.24365234375"><title>Neo4j Graph Visualization</title><desc>Created using Neo4j (http://www.neo4j.com/)</desc><g class="layer relationships"><g class="relationship" transform="translate(131.86803493631666 7.7115396381169035) rotate(522.3291958480825)"><path class="outline" fill="#A5ABB6" stroke="none" d="M 21.40063509461097,12.933012701892217 L 21.90063509461097,12.06698729810778 A 60.03920665395405 60.03920665395405 0 0 0 23.51480034976504,12.966096960476378 L 23.04168553604769,13.847097739727566 A 61.03920665395405 61.03920665395405 0 0 1 21.40063509461097,12.933012701892217 Z M 77.43390028677996,15.5227291820092 L 77.01591218923087,14.614276678953985 A 60.03920665395405 60.03920665395405 0 0 0 78.68236078467234,13.816231107158542 L 77.34512847325962,11.130749819695566 L 85.17135584065473,11.143602595106021 L 80.46533719988929,17.39687282377584 L 79.12810488847657,14.711391536312865 A 61.03920665395405 61.03920665395405 0 0 1 77.43390028677996,15.5227291820092"/><text text-anchor="middle" pointer-events="none" font-size="8px" fill="#000000" x="50.056124283222886" y="23.582009199641156" transform="rotate(180 50.056124283222886 20.582009199641156)" font-family="sans-serif">PublicTrans…</text></g><g class="relationship" transform="translate(29.39229455859602 40.35819311553453) rotate(451.3416808059213)"><path class="outline" fill="#A5ABB6" stroke="none" d="M 25 0.5 L 40.13655496644576 0.5 L 40.13655496644576 -0.5 L 25 -0.5 Z M 59.47249246644576 0.5 L 74.60904743289151 0.5 L 74.60904743289151 3.5 L 81.60904743289151 0 L 74.60904743289151 -3.5 L 74.60904743289151 -0.5 L 59.47249246644576 -0.5 Z"/><text text-anchor="middle" pointer-events="none" font-size="8px" fill="#000000" x="49.80452371644576" y="3" transform="rotate(180 49.80452371644576 0)" font-family="sans-serif">trek</text></g><g class="relationship" transform="translate(26.89608555056905 146.93801266471917) rotate(385.9953913017721)"><path class="outline" fill="#A5ABB6" stroke="none" d="M 25 0.5 L 40.46803190833899 0.5 L 40.46803190833899 -0.5 L 25 -0.5 Z M 59.80396940833899 0.5 L 75.27200131667799 0.5 L 75.27200131667799 3.5 L 82.27200131667799 0 L 75.27200131667799 -3.5 L 75.27200131667799 -0.5 L 59.80396940833899 -0.5 Z"/><text text-anchor="middle" pointer-events="none" font-size="8px" fill="#000000" x="50.13600065833899" y="3" font-family="sans-serif">trek</text></g><g class="relationship" transform="translate(131.86803493631666 7.7115396381169035) rotate(522.3291958480825)"><path class="outline" fill="#A5ABB6" stroke="none" d="M 25 0.5 L 40.60721453475643 0.5 L 40.60721453475643 -0.5 L 25 -0.5 Z M 59.94315203475643 0.5 L 75.55036656951286 0.5 L 75.55036656951286 3.5 L 82.55036656951286 0 L 75.55036656951286 -3.5 L 75.55036656951286 -0.5 L 59.94315203475643 -0.5 Z"/><text text-anchor="middle" pointer-events="none" font-size="8px" fill="#000000" x="50.27518328475643" y="3" transform="rotate(180 50.27518328475643 0)" font-family="sans-serif">trek</text></g><g class="relationship" transform="translate(131.86803493631666 7.7115396381169035) rotate(522.3291958480825)"><path class="outline" fill="#A5ABB6" stroke="none" d="M 21.40063509461097,-12.933012701892217 L 21.90063509461097,-12.06698729810778 A 60.03920665395405 60.03920665395405 0 0 1 39.252197263874635,-18.759046706852068 L 39.04120111879351,-19.736533600248038 A 61.03920665395405 61.03920665395405 0 0 0 21.40063509461097,-12.933012701892217 Z M 61.10220293867689,-20.416154911258012 L 60.95177561465966,-19.427533841186666 A 60.03920665395405 60.03920665395405 0 0 1 78.68236078467234,-13.816231107158542 L 77.34512847325962,-11.130749819695566 L 85.17135584065473,-11.143602595106021 L 80.46533719988929,-17.39687282377584 L 79.12810488847657,-14.711391536312865 A 61.03920665395405 61.03920665395405 0 0 0 61.10220293867689,-20.416154911258012"/><text text-anchor="middle" pointer-events="none" font-size="8px" fill="#000000" x="50.05612428322288" y="-17.582009199641156" transform="rotate(180 50.05612428322288 -20.582009199641156)" font-family="sans-serif">road</text></g></g><g class="layer nodes"><g class="node" transform="translate(131.86803493631666,7.7115396381169035)"><circle class="outline" cx="0" cy="0" r="25" fill="#F16667" stroke="#eb2728" stroke-width="2px"/><text text-anchor="middle" pointer-events="none" font-family="sans-serif" dy="1.5625" font-size="25" fill="#FFFFFF"/><text text-anchor="middle" pointer-events="none" x="0" y="5" font-size="10px" fill="#FFFFFF" font-family="sans-serif"> Darjeeling</text></g><g class="node" transform="translate(123.31530390064411,193.95520738373565)"><circle class="outline" cx="0" cy="0" r="25" fill="#8DCC93" stroke="#5db665" stroke-width="2px"/><text text-anchor="middle" pointer-events="none" font-family="sans-serif" dy="1.5625" font-size="25" fill="#2A2C34"/><text text-anchor="middle" pointer-events="none" x="0" y="5" font-size="10px" fill="#2A2C34" font-family="sans-serif"> Sandak…</text></g><g class="node" transform="translate(29.39229455859602,40.35819311553453)"><circle class="outline" cx="0" cy="0" r="25" fill="#F16667" stroke="#eb2728" stroke-width="2px"/><text text-anchor="middle" pointer-events="none" font-family="sans-serif" dy="1.5625" font-size="25" fill="#FFFFFF"/><text text-anchor="middle" pointer-events="none" x="0" y="5" font-size="10px" fill="#FFFFFF" font-family="sans-serif"> Rimbik</text></g><g class="node" transform="translate(26.89608555056905,146.93801266471917)"><circle class="outline" cx="0" cy="0" r="25" fill="#D9C8AE" stroke="#c0a378" stroke-width="2px"/><text text-anchor="middle" pointer-events="none" font-family="sans-serif" dy="1.5625" font-size="25" fill="#2A2C34"/><text text-anchor="middle" pointer-events="none" x="0" y="5" font-size="10px" fill="#2A2C34" font-family="sans-serif"> BhikeBh…</text></g></g></svg>