<svg xmlns="http://www.w3.org/2000/svg" width="268.9028015136719" height="289.2015075683594" viewBox="-31.016286849975586 -40.34868621826172 268.9028015136719 289.2015075683594"><title>Neo4j Graph Visualization</title><desc>Created using Neo4j (http://www.neo4j.com/)</desc><g class="layer relationships"><g class="relationship" transform="translate(116.52828819298836 -11.34868844531378) rotate(391.59621098543073)"><path class="outline" fill="#A5ABB6" stroke="none" d="M 25 0.5 L 33.49333614952654 0.5 L 33.49333614952654 -0.5 L 25 -0.5 Z M 67.93864864952654 0.5 L 76.43198479905308 0.5 L 76.43198479905308 3.5 L 83.43198479905308 0 L 76.43198479905308 -3.5 L 76.43198479905308 -0.5 L 67.93864864952654 -0.5 Z"/><text text-anchor="middle" pointer-events="none" font-size="8px" fill="#000000" x="50.71599239952654" y="3" font-family="sans-serif">ORIGIN</text></g><g class="relationship" transform="translate(116.52828819298836 -11.34868844531378) rotate(509.8248698197305)"><path class="outline" fill="#A5ABB6" stroke="none" d="M 25 0.5 L 26.046380321621115 0.5 L 26.046380321621115 -0.5 L 25 -0.5 Z M 74.71825532162111 0.5 L 75.76463564324223 0.5 L 75.76463564324223 3.5 L 82.76463564324223 0 L 75.76463564324223 -3.5 L 75.76463564324223 -0.5 L 74.71825532162111 -0.5 Z"/><text text-anchor="middle" pointer-events="none" font-size="8px" fill="#000000" x="50.382317821621115" y="3" transform="rotate(180 50.382317821621115 0)" font-family="sans-serif">DESTINA…</text></g><g class="relationship" transform="translate(-2.0162864274203534 147.522810095055) rotate(283.6269771552374)"><path class="outline" fill="#A5ABB6" stroke="none" d="M 25 0.5 L 33.14581664232406 0.5 L 33.14581664232406 -0.5 L 25 -0.5 Z M 67.59112914232406 0.5 L 75.73694578464811 0.5 L 75.73694578464811 3.5 L 82.73694578464811 0 L 75.73694578464811 -3.5 L 75.73694578464811 -0.5 L 67.59112914232406 -0.5 Z"/><text text-anchor="middle" pointer-events="none" font-size="8px" fill="#000000" x="50.36847289232406" y="3" font-family="sans-serif">ORIGIN</text></g><g class="relationship" transform="translate(-2.0162864274203534 147.522810095055) rotate(401.85850637995054)"><path class="outline" fill="#A5ABB6" stroke="none" d="M 25 0.5 L 26.360630139773924 0.5 L 26.360630139773924 -0.5 L 25 -0.5 Z M 75.03250513977392 0.5 L 76.39313527954785 0.5 L 76.39313527954785 3.5 L 83.39313527954785 0 L 76.39313527954785 -3.5 L 76.39313527954785 -0.5 L 75.03250513977392 -0.5 Z"/><text text-anchor="middle" pointer-events="none" font-size="8px" fill="#000000" x="50.696567639773924" y="3" font-family="sans-serif">DESTINA…</text></g></g><g class="layer nodes"><g class="node" transform="translate(208.88648730836573,45.462035750267326)"><circle class="outline" cx="0" cy="0" r="25" fill="#ECB5C9" stroke="#da7298" stroke-width="2px"/><text text-anchor="middle" pointer-events="none" font-family="sans-serif" dy="1.5625" font-size="25" fill="#2A2C34"/><text text-anchor="middle" pointer-events="none" x="0" y="5" font-size="10px" fill="#2A2C34" font-family="sans-serif"> MSN</text></g><g class="node" transform="translate(78.71437827914747,219.85282842607774)"><circle class="outline" cx="0" cy="0" r="25" fill="#ECB5C9" stroke="#da7298" stroke-width="2px"/><text text-anchor="middle" pointer-events="none" font-family="sans-serif" dy="1.5625" font-size="25" fill="#2A2C34"/><text text-anchor="middle" pointer-events="none" x="0" y="5" font-size="10px" fill="#2A2C34" font-family="sans-serif"> GRR</text></g><g class="node" transform="translate(116.52828819298836,-11.34868844531378)"><circle class="outline" cx="0" cy="0" r="25" fill="#4C8EDA" stroke="#2870c2" stroke-width="2px"/><text text-anchor="middle" pointer-events="none" font-family="sans-serif" dy="1.5625" font-size="25" fill="#FFFFFF"/><text text-anchor="middle" pointer-events="none" x="0" y="5" font-size="10px" fill="#FFFFFF" font-family="sans-serif"> 11/30/20…</text></g><g class="node" transform="translate(23.366508405766044,42.818640104263466)"><circle class="outline" cx="0" cy="0" r="25" fill="#ECB5C9" stroke="#da7298" stroke-width="2px"/><text text-anchor="middle" pointer-events="none" font-family="sans-serif" dy="1.5625" font-size="25" fill="#2A2C34"/><text text-anchor="middle" pointer-events="none" x="0" y="5" font-size="10px" fill="#2A2C34" font-family="sans-serif"> ORD</text></g><g class="node" transform="translate(-2.0162864274203534,147.522810095055)"><circle class="outline" cx="0" cy="0" r="25" fill="#4C8EDA" stroke="#2870c2" stroke-width="2px"/><text text-anchor="middle" pointer-events="none" font-family="sans-serif" dy="1.5625" font-size="25" fill="#FFFFFF"/><text text-anchor="middle" pointer-events="none" x="0" y="5" font-size="10px" fill="#FFFFFF" font-family="sans-serif"> 11/17/20…</text></g></g></svg>