<svg xmlns="http://www.w3.org/2000/svg" width="627.0133056640625" height="621.1087646484375" viewBox="-221.01205444335938 -228.23776245117188 627.0133056640625 621.1087646484375"><title>Neo4j Graph Visualization</title><desc>Created using Neo4j (http://www.neo4j.com/)</desc><g class="layer relationships"><g class="relationship" transform="translate(-58.712558840044366 134.3669606012215) rotate(337.36136510496976)"><path class="outline" fill="#A5ABB6" stroke="none" d="M 25 0.5 L 61.08174196381512 0.5 L 61.08174196381512 -0.5 L 25 -0.5 Z M 95.52705446381512 0.5 L 131.60879642763024 0.5 L 131.60879642763024 3.5 L 138.60879642763024 0 L 131.60879642763024 -3.5 L 131.60879642763024 -0.5 L 95.52705446381512 -0.5 Z"/><text text-anchor="middle" pointer-events="none" font-size="8px" fill="#000000" x="78.30439821381512" y="3" font-family="sans-serif">ORIGIN</text></g><g class="relationship" transform="translate(-58.712558840044366 134.3669606012215) rotate(201.25949692927134)"><path class="outline" fill="#A5ABB6" stroke="none" d="M 25 0.5 L 38.42286498021211 0.5 L 38.42286498021211 -0.5 L 25 -0.5 Z M 97.61036498021211 0.5 L 111.03322996042422 0.5 L 111.03322996042422 3.5 L 118.03322996042422 0 L 111.03322996042422 -3.5 L 111.03322996042422 -0.5 L 97.61036498021211 -0.5 Z"/><text text-anchor="middle" pointer-events="none" font-size="8px" fill="#000000" x="68.01661498021211" y="3" transform="rotate(180 68.01661498021211 0)" font-family="sans-serif">DESTINATION</text></g><g class="relationship" transform="translate(265.0176748001567 145.02967432184832) rotate(203.08994807887996)"><path class="outline" fill="#A5ABB6" stroke="none" d="M 25 0.5 L 73.16209782341106 0.5 L 73.16209782341106 -0.5 L 25 -0.5 Z M 107.60741032341106 0.5 L 155.76950814682212 0.5 L 155.76950814682212 3.5 L 162.76950814682212 0 L 155.76950814682212 -3.5 L 155.76950814682212 -0.5 L 107.60741032341106 -0.5 Z"/><text text-anchor="middle" pointer-events="none" font-size="8px" fill="#000000" x="90.38475407341106" y="3" transform="rotate(180 90.38475407341106 0)" font-family="sans-serif">ORIGIN</text></g><g class="relationship" transform="translate(265.0176748001567 145.02967432184832) rotate(383.7946832045961)"><path class="outline" fill="#A5ABB6" stroke="none" d="M 25 0.5 L 25.686351050889442 0.5 L 25.686351050889442 -0.5 L 25 -0.5 Z M 69.02228855088944 0.5 L 69.70863960177888 0.5 L 69.70863960177888 3.5 L 76.70863960177888 0 L 69.70863960177888 -3.5 L 69.70863960177888 -0.5 L 69.02228855088944 -0.5 Z"/><text text-anchor="middle" pointer-events="none" font-size="8px" fill="#000000" x="47.35431980088944" y="3" font-family="sans-serif">DESTIN…</text></g><g class="relationship" transform="translate(242.0085640927683 2.797433195875653) rotate(515.38505845123)"><path class="outline" fill="#A5ABB6" stroke="none" d="M 25 0.5 L 61.61906026804654 0.5 L 61.61906026804654 -0.5 L 25 -0.5 Z M 96.06437276804654 0.5 L 132.68343303609308 0.5 L 132.68343303609308 3.5 L 139.68343303609308 0 L 132.68343303609308 -3.5 L 132.68343303609308 -0.5 L 96.06437276804654 -0.5 Z"/><text text-anchor="middle" pointer-events="none" font-size="8px" fill="#000000" x="78.84171651804654" y="3" transform="rotate(180 78.84171651804654 0)" font-family="sans-serif">ORIGIN</text></g><g class="relationship" transform="translate(242.0085640927683 2.797433195875653) rotate(334.23318851075214)"><path class="outline" fill="#A5ABB6" stroke="none" d="M 25 0.5 L 41.8546374673287 0.5 L 41.8546374673287 -0.5 L 25 -0.5 Z M 101.0421374673287 0.5 L 117.8967749346574 0.5 L 117.8967749346574 3.5 L 124.8967749346574 0 L 117.8967749346574 -3.5 L 117.8967749346574 -0.5 L 101.0421374673287 -0.5 Z"/><text text-anchor="middle" pointer-events="none" font-size="8px" fill="#000000" x="71.4483874673287" y="3" font-family="sans-serif">DESTINATION</text></g><g class="relationship" transform="translate(-35.898170675283154 64.00035913542497) rotate(363.2997183383892)"><path class="outline" fill="#A5ABB6" stroke="none" d="M 25 0.5 L 43.47802888431636 0.5 L 43.47802888431636 -0.5 L 25 -0.5 Z M 77.92334138431636 0.5 L 96.40137026863272 0.5 L 96.40137026863272 3.5 L 103.40137026863272 0 L 96.40137026863272 -3.5 L 96.40137026863272 -0.5 L 77.92334138431636 -0.5 Z"/><text text-anchor="middle" pointer-events="none" font-size="8px" fill="#000000" x="60.70068513431636" y="3" font-family="sans-serif">ORIGIN</text></g><g class="relationship" transform="translate(-35.898170675283154 64.00035913542497) rotate(533.2403992074674)"><path class="outline" fill="#A5ABB6" stroke="none" d="M 25 0.5 L 45.50958636080715 0.5 L 45.50958636080715 -0.5 L 25 -0.5 Z M 104.69708636080715 0.5 L 125.2066727216143 0.5 L 125.2066727216143 3.5 L 132.2066727216143 0 L 125.2066727216143 -3.5 L 125.2066727216143 -0.5 L 104.69708636080715 -0.5 Z"/><text text-anchor="middle" pointer-events="none" font-size="8px" fill="#000000" x="75.10333636080715" y="3" transform="rotate(180 75.10333636080715 0)" font-family="sans-serif">DESTINATION</text></g><g class="relationship" transform="translate(95.38567527131818 234.30917575038066) rotate(268.91154365139704)"><path class="outline" fill="#A5ABB6" stroke="none" d="M 25 0.5 L 60.75111832802 0.5 L 60.75111832802 -0.5 L 25 -0.5 Z M 95.19643082802 0.5 L 130.94754915604 0.5 L 130.94754915604 3.5 L 137.94754915604 0 L 130.94754915604 -3.5 L 130.94754915604 -0.5 L 95.19643082802 -0.5 Z"/><text text-anchor="middle" pointer-events="none" font-size="8px" fill="#000000" x="77.97377457802" y="3" transform="rotate(180 77.97377457802 0)" font-family="sans-serif">ORIGIN</text></g><g class="relationship" transform="translate(95.38567527131818 234.30917575038066) rotate(472.0414659275486)"><path class="outline" fill="#A5ABB6" stroke="none" d="M 25 0.5 L 36.59058836746868 0.5 L 36.59058836746868 -0.5 L 25 -0.5 Z M 95.77808836746868 0.5 L 107.36867673493737 0.5 L 107.36867673493737 3.5 L 114.36867673493737 0 L 107.36867673493737 -3.5 L 107.36867673493737 -0.5 L 95.77808836746868 -0.5 Z"/><text text-anchor="middle" pointer-events="none" font-size="8px" fill="#000000" x="66.18433836746868" y="3" transform="rotate(180 66.18433836746868 0)" font-family="sans-serif">DESTINATION</text></g><g class="relationship" transform="translate(118.15053461910048 -102.02596485719191) rotate(458.48153559887874)"><path class="outline" fill="#A5ABB6" stroke="none" d="M 25 0.5 L 66.94461854111876 0.5 L 66.94461854111876 -0.5 L 25 -0.5 Z M 101.38993104111876 0.5 L 143.3345495822375 0.5 L 143.3345495822375 3.5 L 150.3345495822375 0 L 143.3345495822375 -3.5 L 143.3345495822375 -0.5 L 101.38993104111876 -0.5 Z"/><text text-anchor="middle" pointer-events="none" font-size="8px" fill="#000000" x="84.16727479111876" y="3" transform="rotate(180 84.16727479111876 0)" font-family="sans-serif">ORIGIN</text></g><g class="relationship" transform="translate(118.15053461910048 -102.02596485719191) rotate(251.3756830519967)"><path class="outline" fill="#A5ABB6" stroke="none" d="M 25 0.5 L 26.12393233423193 0.5 L 26.12393233423193 -0.5 L 25 -0.5 Z M 69.45986983423194 0.5 L 70.58380216846386 0.5 L 70.58380216846386 3.5 L 77.58380216846386 0 L 70.58380216846386 -3.5 L 70.58380216846386 -0.5 L 69.45986983423194 -0.5 Z"/><text text-anchor="middle" pointer-events="none" font-size="8px" fill="#000000" x="47.79190108423193" y="3" transform="rotate(180 47.79190108423193 0)" font-family="sans-serif">DESTIN…</text></g><g class="relationship" transform="translate(212.48016654207598 116.62295021994672) rotate(200.62319083789737)"><path class="outline" fill="#A5ABB6" stroke="none" d="M 25 0.5 L 43.48701050301284 0.5 L 43.48701050301284 -0.5 L 25 -0.5 Z M 77.93232300301284 0.5 L 96.41933350602568 0.5 L 96.41933350602568 3.5 L 103.41933350602568 0 L 96.41933350602568 -3.5 L 96.41933350602568 -0.5 L 77.93232300301284 -0.5 Z"/><text text-anchor="middle" pointer-events="none" font-size="8px" fill="#000000" x="60.70966675301284" y="3" transform="rotate(180 60.70966675301284 0)" font-family="sans-serif">ORIGIN</text></g><g class="relationship" transform="translate(212.48016654207598 116.62295021994672) rotate(385.4981401008763)"><path class="outline" fill="#A5ABB6" stroke="none" d="M 25 0.5 L 47.56254250359987 0.5 L 47.56254250359987 -0.5 L 25 -0.5 Z M 106.75004250359987 0.5 L 129.31258500719974 0.5 L 129.31258500719974 3.5 L 136.31258500719974 0 L 129.31258500719974 -3.5 L 129.31258500719974 -0.5 L 106.75004250359987 -0.5 Z"/><text text-anchor="middle" pointer-events="none" font-size="8px" fill="#000000" x="77.15629250359987" y="3" font-family="sans-serif">DESTINATION</text></g><g class="relationship" transform="translate(263.64307918667 85.11808652760564) rotate(184.5801797777492)"><path class="outline" fill="#A5ABB6" stroke="none" d="M 25 0.5 L 65.22820063219946 0.5 L 65.22820063219946 -0.5 L 25 -0.5 Z M 99.67351313219946 0.5 L 139.90171376439892 0.5 L 139.90171376439892 3.5 L 146.90171376439892 0 L 139.90171376439892 -3.5 L 139.90171376439892 -0.5 L 99.67351313219946 -0.5 Z"/><text text-anchor="middle" pointer-events="none" font-size="8px" fill="#000000" x="82.45085688219946" y="3" transform="rotate(180 82.45085688219946 0)" font-family="sans-serif">ORIGIN</text></g><g class="relationship" transform="translate(263.64307918667 85.11808652760564) rotate(406.90811689966904)"><path class="outline" fill="#A5ABB6" stroke="none" d="M 25 0.5 L 36.023498851696345 0.5 L 36.023498851696345 -0.5 L 25 -0.5 Z M 95.21099885169635 0.5 L 106.23449770339269 0.5 L 106.23449770339269 3.5 L 113.23449770339269 0 L 106.23449770339269 -3.5 L 106.23449770339269 -0.5 L 95.21099885169635 -0.5 Z"/><text text-anchor="middle" pointer-events="none" font-size="8px" fill="#000000" x="65.61724885169635" y="3" font-family="sans-serif">DESTINATION</text></g><g class="relationship" transform="translate(-91.94506762527175 84.58889219701622) rotate(355.9025661043039)"><path class="outline" fill="#A5ABB6" stroke="none" d="M 25 0.5 L 71.63109667895907 0.5 L 71.63109667895907 -0.5 L 25 -0.5 Z M 106.07640917895907 0.5 L 152.70750585791814 0.5 L 152.70750585791814 3.5 L 159.70750585791814 0 L 152.70750585791814 -3.5 L 152.70750585791814 -0.5 L 106.07640917895907 -0.5 Z"/><text text-anchor="middle" pointer-events="none" font-size="8px" fill="#000000" x="88.85375292895907" y="3" font-family="sans-serif">ORIGIN</text></g><g class="relationship" transform="translate(-91.94506762527175 84.58889219701622) rotate(181.1934787347991)"><path class="outline" fill="#A5ABB6" stroke="none" d="M 25 0.5 L 27.765055987779476 0.5 L 27.765055987779476 -0.5 L 25 -0.5 Z M 65.32364973777948 0.5 L 68.08870572555895 0.5 L 68.08870572555895 3.5 L 75.08870572555895 0 L 68.08870572555895 -3.5 L 68.08870572555895 -0.5 L 65.32364973777948 -0.5 Z"/><text text-anchor="middle" pointer-events="none" font-size="8px" fill="#000000" x="46.544352862779476" y="3" transform="rotate(180 46.544352862779476 0)" font-family="sans-serif">DESTI…</text></g><g class="relationship" transform="translate(148.05704826743212 -50.126231073042206) rotate(474.6513462966848)"><path class="outline" fill="#A5ABB6" stroke="none" d="M 25 0.5 L 46.12861922634016 0.5 L 46.12861922634016 -0.5 L 25 -0.5 Z M 80.57393172634016 0.5 L 101.70255095268033 0.5 L 101.70255095268033 3.5 L 108.70255095268033 0 L 101.70255095268033 -3.5 L 101.70255095268033 -0.5 L 80.57393172634016 -0.5 Z"/><text text-anchor="middle" pointer-events="none" font-size="8px" fill="#000000" x="63.35127547634016" y="3" transform="rotate(180 63.35127547634016 0)" font-family="sans-serif">ORIGIN</text></g><g class="relationship" transform="translate(148.05704826743212 -50.126231073042206) rotate(247.20420623636994)"><path class="outline" fill="#A5ABB6" stroke="none" d="M 25 0.5 L 47.7788416008903 0.5 L 47.7788416008903 -0.5 L 25 -0.5 Z M 106.9663416008903 0.5 L 129.7451832017806 0.5 L 129.7451832017806 3.5 L 136.7451832017806 0 L 129.7451832017806 -3.5 L 129.7451832017806 -0.5 L 106.9663416008903 -0.5 Z"/><text text-anchor="middle" pointer-events="none" font-size="8px" fill="#000000" x="77.3725916008903" y="3" transform="rotate(180 77.3725916008903 0)" font-family="sans-serif">DESTINATION</text></g><g class="relationship" transform="translate(-75.27030571306052 18.795126251980896) rotate(377.4266439491805)"><path class="outline" fill="#A5ABB6" stroke="none" d="M 25 0.5 L 67.0880680955224 0.5 L 67.0880680955224 -0.5 L 25 -0.5 Z M 101.5333805955224 0.5 L 143.6214486910448 0.5 L 143.6214486910448 3.5 L 150.6214486910448 0 L 143.6214486910448 -3.5 L 143.6214486910448 -0.5 L 101.5333805955224 -0.5 Z"/><text text-anchor="middle" pointer-events="none" font-size="8px" fill="#000000" x="84.3107243455224" y="3" font-family="sans-serif">ORIGIN</text></g><g class="relationship" transform="translate(-75.27030571306052 18.795126251980896) rotate(511.37753785426895)"><path class="outline" fill="#A5ABB6" stroke="none" d="M 25 0.5 L 33.40339467573378 0.5 L 33.40339467573378 -0.5 L 25 -0.5 Z M 92.59089467573378 0.5 L 100.99428935146756 0.5 L 100.99428935146756 3.5 L 107.99428935146756 0 L 100.99428935146756 -3.5 L 100.99428935146756 -0.5 L 92.59089467573378 -0.5 Z"/><text text-anchor="middle" pointer-events="none" font-size="8px" fill="#000000" x="62.99714467573378" y="3" transform="rotate(180 62.99714467573378 0)" font-family="sans-serif">DESTINATION</text></g><g class="relationship" transform="translate(178.0894449564014 -101.79635545347483) rotate(476.3543706571679)"><path class="outline" fill="#A5ABB6" stroke="none" d="M 25 0.5 L 75.91501684796671 0.5 L 75.91501684796671 -0.5 L 25 -0.5 Z M 110.36032934796671 0.5 L 161.27534619593342 0.5 L 161.27534619593342 3.5 L 168.27534619593342 0 L 161.27534619593342 -3.5 L 161.27534619593342 -0.5 L 110.36032934796671 -0.5 Z"/><text text-anchor="middle" pointer-events="none" font-size="8px" fill="#000000" x="93.13767309796671" y="3" transform="rotate(180 93.13767309796671 0)" font-family="sans-serif">ORIGIN</text></g><g class="relationship" transform="translate(178.0894449564014 -101.79635545347483) rotate(226.42837117921334)"><path class="outline" fill="#A5ABB6" stroke="none" d="M 25 0.5 L 34.15236366394535 0.5 L 34.15236366394535 -0.5 L 25 -0.5 Z M 93.33986366394535 0.5 L 102.4922273278907 0.5 L 102.4922273278907 3.5 L 109.4922273278907 0 L 102.4922273278907 -3.5 L 102.4922273278907 -0.5 L 93.33986366394535 -0.5 Z"/><text text-anchor="middle" pointer-events="none" font-size="8px" fill="#000000" x="63.74611366394535" y="3" transform="rotate(180 63.74611366394535 0)" font-family="sans-serif">DESTINATION</text></g><g class="relationship" transform="translate(36.24805781074613 224.85566281106335) rotate(290.0611989066507)"><path class="outline" fill="#A5ABB6" stroke="none" d="M 25 0.5 L 60.965974133037534 0.5 L 60.965974133037534 -0.5 L 25 -0.5 Z M 95.41128663303753 0.5 L 131.37726076607507 0.5 L 131.37726076607507 3.5 L 138.37726076607507 0 L 131.37726076607507 -3.5 L 131.37726076607507 -0.5 L 95.41128663303753 -0.5 Z"/><text text-anchor="middle" pointer-events="none" font-size="8px" fill="#000000" x="78.18863038303753" y="3" font-family="sans-serif">ORIGIN</text></g><g class="relationship" transform="translate(36.24805781074613 224.85566281106335) rotate(447.17722055631015)"><path class="outline" fill="#A5ABB6" stroke="none" d="M 25 0.5 L 36.308501071034385 0.5 L 36.308501071034385 -0.5 L 25 -0.5 Z M 95.49600107103439 0.5 L 106.80450214206877 0.5 L 106.80450214206877 3.5 L 113.80450214206877 0 L 106.80450214206877 -3.5 L 106.80450214206877 -0.5 L 95.49600107103439 -0.5 Z"/><text text-anchor="middle" pointer-events="none" font-size="8px" fill="#000000" x="65.90225107103439" y="3" font-family="sans-serif">DESTINATION</text></g><g class="relationship" transform="translate(88.12040354660314 -50.27719738205016) rotate(448.03707749805653)"><path class="outline" fill="#A5ABB6" stroke="none" d="M 25 0.5 L 40.147175187011726 0.5 L 40.147175187011726 -0.5 L 25 -0.5 Z M 74.59248768701173 0.5 L 89.73966287402345 0.5 L 89.73966287402345 3.5 L 96.73966287402345 0 L 89.73966287402345 -3.5 L 89.73966287402345 -0.5 L 74.59248768701173 -0.5 Z"/><text text-anchor="middle" pointer-events="none" font-size="8px" fill="#000000" x="57.369831437011726" y="3" font-family="sans-serif">ORIGIN</text></g><g class="relationship" transform="translate(88.12040354660314 -50.27719738205016) rotate(268.9496009436118)"><path class="outline" fill="#A5ABB6" stroke="none" d="M 25 0.5 L 41.399047539421474 0.5 L 41.399047539421474 -0.5 L 25 -0.5 Z M 100.58654753942147 0.5 L 116.98559507884295 0.5 L 116.98559507884295 3.5 L 123.98559507884295 0 L 116.98559507884295 -3.5 L 116.98559507884295 -0.5 L 100.58654753942147 -0.5 Z"/><text text-anchor="middle" pointer-events="none" font-size="8px" fill="#000000" x="70.99279753942147" y="3" transform="rotate(180 70.99279753942147 0)" font-family="sans-serif">DESTINATION</text></g><g class="relationship" transform="translate(56.32442871298596 -100.98542580053943) rotate(438.21446754812564)"><path class="outline" fill="#A5ABB6" stroke="none" d="M 25 0.5 L 67.32163329228965 0.5 L 67.32163329228965 -0.5 L 25 -0.5 Z M 101.76694579228965 0.5 L 144.0885790845793 0.5 L 144.0885790845793 3.5 L 151.0885790845793 0 L 144.0885790845793 -3.5 L 144.0885790845793 -0.5 L 101.76694579228965 -0.5 Z"/><text text-anchor="middle" pointer-events="none" font-size="8px" fill="#000000" x="84.54428954228965" y="3" font-family="sans-serif">ORIGIN</text></g><g class="relationship" transform="translate(56.32442871298596 -100.98542580053943) rotate(286.47915396511286)"><path class="outline" fill="#A5ABB6" stroke="none" d="M 25 0.5 L 26.06259412585807 0.5 L 26.06259412585807 -0.5 L 25 -0.5 Z M 69.39853162585807 0.5 L 70.46112575171614 0.5 L 70.46112575171614 3.5 L 77.46112575171614 0 L 70.46112575171614 -3.5 L 70.46112575171614 -0.5 L 69.39853162585807 -0.5 Z"/><text text-anchor="middle" pointer-events="none" font-size="8px" fill="#000000" x="47.73056287585807" y="3" font-family="sans-serif">DESTIN…</text></g><g class="relationship" transform="translate(28.1579367743639 -48.20808094442539) rotate(421.7985466113358)"><path class="outline" fill="#A5ABB6" stroke="none" d="M 25 0.5 L 47.13180202155013 0.5 L 47.13180202155013 -0.5 L 25 -0.5 Z M 81.57711452155013 0.5 L 103.70891654310026 0.5 L 103.70891654310026 3.5 L 110.70891654310026 0 L 103.70891654310026 -3.5 L 103.70891654310026 -0.5 L 81.57711452155013 -0.5 Z"/><text text-anchor="middle" pointer-events="none" font-size="8px" fill="#000000" x="64.35445827155013" y="3" font-family="sans-serif">ORIGIN</text></g><g class="relationship" transform="translate(28.1579367743639 -48.20808094442539) rotate(290.7537330844946)"><path class="outline" fill="#A5ABB6" stroke="none" d="M 25 0.5 L 47.661098326346945 0.5 L 47.661098326346945 -0.5 L 25 -0.5 Z M 106.84859832634694 0.5 L 129.5096966526939 0.5 L 129.5096966526939 3.5 L 136.5096966526939 0 L 129.5096966526939 -3.5 L 129.5096966526939 -0.5 L 106.84859832634694 -0.5 Z"/><text text-anchor="middle" pointer-events="none" font-size="8px" fill="#000000" x="77.25484832634694" y="3" font-family="sans-serif">DESTINATION</text></g><g class="relationship" transform="translate(-14.085894296876013 190.51420369175042) rotate(311.76464561271496)"><path class="outline" fill="#A5ABB6" stroke="none" d="M 25 0.5 L 59.130694269477345 0.5 L 59.130694269477345 -0.5 L 25 -0.5 Z M 93.57600676947735 0.5 L 127.70670103895469 0.5 L 127.70670103895469 3.5 L 134.7067010389547 0 L 127.70670103895469 -3.5 L 127.70670103895469 -0.5 L 93.57600676947735 -0.5 Z"/><text text-anchor="middle" pointer-events="none" font-size="8px" fill="#000000" x="76.35335051947735" y="3" font-family="sans-serif">ORIGIN</text></g><g class="relationship" transform="translate(-14.085894296876013 190.51420369175042) rotate(492.31695557694434)"><path class="outline" fill="#A5ABB6" stroke="none" d="M 25 0.5 L 43.29206109446933 0.5 L 43.29206109446933 -0.5 L 25 -0.5 Z M 102.47956109446933 0.5 L 120.77162218893866 0.5 L 120.77162218893866 3.5 L 127.77162218893866 0 L 120.77162218893866 -3.5 L 120.77162218893866 -0.5 L 102.47956109446933 -0.5 Z"/><text text-anchor="middle" pointer-events="none" font-size="8px" fill="#000000" x="72.88581109446933" y="3" transform="rotate(180 72.88581109446933 0)" font-family="sans-serif">DESTINATION</text></g><g class="relationship" transform="translate(218.46435160855532 182.73450077427205) rotate(221.42709863414183)"><path class="outline" fill="#A5ABB6" stroke="none" d="M 25 0.5 L 63.41600050953913 0.5 L 63.41600050953913 -0.5 L 25 -0.5 Z M 97.86131300953913 0.5 L 136.27731351907826 0.5 L 136.27731351907826 3.5 L 143.27731351907826 0 L 136.27731351907826 -3.5 L 136.27731351907826 -0.5 L 97.86131300953913 -0.5 Z"/><text text-anchor="middle" pointer-events="none" font-size="8px" fill="#000000" x="80.63865675953913" y="3" transform="rotate(180 80.63865675953913 0)" font-family="sans-serif">ORIGIN</text></g><g class="relationship" transform="translate(218.46435160855532 182.73450077427205) rotate(361.3665443364748)"><path class="outline" fill="#A5ABB6" stroke="none" d="M 25 0.5 L 36.734327414056025 0.5 L 36.734327414056025 -0.5 L 25 -0.5 Z M 95.92182741405603 0.5 L 107.65615482811205 0.5 L 107.65615482811205 3.5 L 114.65615482811205 0 L 107.65615482811205 -3.5 L 107.65615482811205 -0.5 L 95.92182741405603 -0.5 Z"/><text text-anchor="middle" pointer-events="none" font-size="8px" fill="#000000" x="66.32807741405603" y="3" font-family="sans-serif">DESTINATION</text></g><g class="relationship" transform="translate(-3.6141549443028027 -98.84579024597586) rotate(420.6048641325099)"><path class="outline" fill="#A5ABB6" stroke="none" d="M 25 0.5 L 76.97361219033294 0.5 L 76.97361219033294 -0.5 L 25 -0.5 Z M 111.41892469033294 0.5 L 163.3925368806659 0.5 L 163.3925368806659 3.5 L 170.3925368806659 0 L 163.3925368806659 -3.5 L 163.3925368806659 -0.5 L 111.41892469033294 -0.5 Z"/><text text-anchor="middle" pointer-events="none" font-size="8px" fill="#000000" x="94.19626844033294" y="3" font-family="sans-serif">ORIGIN</text></g><g class="relationship" transform="translate(-3.6141549443028027 -98.84579024597586) rotate(311.55887127487335)"><path class="outline" fill="#A5ABB6" stroke="none" d="M 25 0.5 L 33.98856283279491 0.5 L 33.98856283279491 -0.5 L 25 -0.5 Z M 93.17606283279491 0.5 L 102.16462566558982 0.5 L 102.16462566558982 3.5 L 109.16462566558982 0 L 102.16462566558982 -3.5 L 102.16462566558982 -0.5 L 93.17606283279491 -0.5 Z"/><text text-anchor="middle" pointer-events="none" font-size="8px" fill="#000000" x="63.58231283279491" y="3" font-family="sans-serif">DESTINATION</text></g><g class="relationship" transform="translate(155.33984443139178 220.87400563981453) rotate(247.13076316986871)"><path class="outline" fill="#A5ABB6" stroke="none" d="M 25 0.5 L 60.39516314894769 0.5 L 60.39516314894769 -0.5 L 25 -0.5 Z M 94.84047564894769 0.5 L 130.23563879789538 0.5 L 130.23563879789538 3.5 L 137.23563879789538 0 L 130.23563879789538 -3.5 L 130.23563879789538 -0.5 L 94.84047564894769 -0.5 Z"/><text text-anchor="middle" pointer-events="none" font-size="8px" fill="#000000" x="77.61781939894769" y="3" transform="rotate(180 77.61781939894769 0)" font-family="sans-serif">ORIGIN</text></g><g class="relationship" transform="translate(155.33984443139178 220.87400563981453) rotate(427.3226104818681)"><path class="outline" fill="#A5ABB6" stroke="none" d="M 25 0.5 L 44.39539481878971 0.5 L 44.39539481878971 -0.5 L 25 -0.5 Z M 103.58289481878971 0.5 L 122.97828963757942 0.5 L 122.97828963757942 3.5 L 129.97828963757942 0 L 122.97828963757942 -3.5 L 122.97828963757942 -0.5 L 103.58289481878971 -0.5 Z"/><text text-anchor="middle" pointer-events="none" font-size="8px" fill="#000000" x="73.98914481878971" y="3" font-family="sans-serif">DESTINATION</text></g></g><g class="layer nodes"><g class="node" transform="translate(92.29032290794278,71.39102891060526)"><circle class="outline" cx="0" cy="0" r="25" fill="#ECB5C9" stroke="#da7298" stroke-width="2px"/><text text-anchor="middle" pointer-events="none" font-family="sans-serif" dy="1.5625" font-size="25" fill="#2A2C34"/><text text-anchor="middle" pointer-events="none" x="0" y="5" font-size="10px" fill="#2A2C34" font-family="sans-serif"> LAX</text></g><g class="node" transform="translate(-192.01206016845987,82.50418186244436)"><circle class="outline" cx="0" cy="0" r="25" fill="#ECB5C9" stroke="#da7298" stroke-width="2px"/><text text-anchor="middle" pointer-events="none" font-family="sans-serif" dy="1.5625" font-size="25" fill="#2A2C34"/><text text-anchor="middle" pointer-events="none" x="0" y="5" font-size="10px" fill="#2A2C34" font-family="sans-serif"> SMF</text></g><g class="node" transform="translate(358.0807862129943,186.06508176232975)"><circle class="outline" cx="0" cy="0" r="25" fill="#ECB5C9" stroke="#da7298" stroke-width="2px"/><text text-anchor="middle" pointer-events="none" font-family="sans-serif" dy="1.5625" font-size="25" fill="#2A2C34"/><text text-anchor="middle" pointer-events="none" x="0" y="5" font-size="10px" fill="#2A2C34" font-family="sans-serif"> FAT</text></g><g class="node" transform="translate(377.0012117354796,-62.36412156014689)"><circle class="outline" cx="0" cy="0" r="25" fill="#ECB5C9" stroke="#da7298" stroke-width="2px"/><text text-anchor="middle" pointer-events="none" font-family="sans-serif" dy="1.5625" font-size="25" fill="#2A2C34"/><text text-anchor="middle" pointer-events="none" x="0" y="5" font-size="10px" fill="#2A2C34" font-family="sans-serif"> LAS</text></g><g class="node" transform="translate(43.083744745447625,363.4917446910643)"><circle class="outline" cx="0" cy="0" r="25" fill="#ECB5C9" stroke="#da7298" stroke-width="2px"/><text text-anchor="middle" pointer-events="none" font-family="sans-serif" dy="1.5625" font-size="25" fill="#2A2C34"/><text text-anchor="middle" pointer-events="none" x="0" y="5" font-size="10px" fill="#2A2C34" font-family="sans-serif"> TUS</text></g><g class="node" transform="translate(85.3892152500764,-199.2377564286846)"><circle class="outline" cx="0" cy="0" r="25" fill="#ECB5C9" stroke="#da7298" stroke-width="2px"/><text text-anchor="middle" pointer-events="none" font-family="sans-serif" dy="1.5625" font-size="25" fill="#2A2C34"/><text text-anchor="middle" pointer-events="none" x="0" y="5" font-size="10px" fill="#2A2C34" font-family="sans-serif"> ABQ</text></g><g class="node" transform="translate(-116.93654181388902,303.4784141814934)"><circle class="outline" cx="0" cy="0" r="25" fill="#ECB5C9" stroke="#da7298" stroke-width="2px"/><text text-anchor="middle" pointer-events="none" font-family="sans-serif" dy="1.5625" font-size="25" fill="#2A2C34"/><text text-anchor="middle" pointer-events="none" x="0" y="5" font-size="10px" fill="#2A2C34" font-family="sans-serif"> EWR</text></g><g class="node" transform="translate(215.0904769714196,363.87097123718667)"><circle class="outline" cx="0" cy="0" r="25" fill="#ECB5C9" stroke="#da7298" stroke-width="2px"/><text text-anchor="middle" pointer-events="none" font-family="sans-serif" dy="1.5625" font-size="25" fill="#2A2C34"/><text text-anchor="middle" pointer-events="none" x="0" y="5" font-size="10px" fill="#2A2C34" font-family="sans-serif"> IAH</text></g><g class="node" transform="translate(-58.712558840044366,134.3669606012215)"><circle class="outline" cx="0" cy="0" r="25" fill="#4C8EDA" stroke="#2870c2" stroke-width="2px"/><text text-anchor="middle" pointer-events="none" font-family="sans-serif" dy="1.5625" font-size="25" fill="#FFFFFF"/><text text-anchor="middle" pointer-events="none" x="0" y="5" font-size="10px" fill="#FFFFFF" font-family="sans-serif"> 11/4/2015</text></g><g class="node" transform="translate(265.0176748001567,145.02967432184832)"><circle class="outline" cx="0" cy="0" r="25" fill="#4C8EDA" stroke="#2870c2" stroke-width="2px"/><text text-anchor="middle" pointer-events="none" font-family="sans-serif" dy="1.5625" font-size="25" fill="#FFFFFF"/><text text-anchor="middle" pointer-events="none" x="0" y="5" font-size="10px" fill="#FFFFFF" font-family="sans-serif"> 11/4/2015</text></g><g class="node" transform="translate(242.0085640927683,2.797433195875653)"><circle class="outline" cx="0" cy="0" r="25" fill="#4C8EDA" stroke="#2870c2" stroke-width="2px"/><text text-anchor="middle" pointer-events="none" font-family="sans-serif" dy="1.5625" font-size="25" fill="#FFFFFF"/><text text-anchor="middle" pointer-events="none" x="0" y="5" font-size="10px" fill="#FFFFFF" font-family="sans-serif"> 11/29/20…</text></g><g class="node" transform="translate(-35.898170675283154,64.00035913542497)"><circle class="outline" cx="0" cy="0" r="25" fill="#4C8EDA" stroke="#2870c2" stroke-width="2px"/><text text-anchor="middle" pointer-events="none" font-family="sans-serif" dy="1.5625" font-size="25" fill="#FFFFFF"/><text text-anchor="middle" pointer-events="none" x="0" y="5" font-size="10px" fill="#FFFFFF" font-family="sans-serif"> 11/2/2015</text></g><g class="node" transform="translate(95.38567527131818,234.30917575038066)"><circle class="outline" cx="0" cy="0" r="25" fill="#4C8EDA" stroke="#2870c2" stroke-width="2px"/><text text-anchor="middle" pointer-events="none" font-family="sans-serif" dy="1.5625" font-size="25" fill="#FFFFFF"/><text text-anchor="middle" pointer-events="none" x="0" y="5" font-size="10px" fill="#FFFFFF" font-family="sans-serif"> 11/1/2015</text></g><g class="node" transform="translate(118.15053461910048,-102.02596485719191)"><circle class="outline" cx="0" cy="0" r="25" fill="#4C8EDA" stroke="#2870c2" stroke-width="2px"/><text text-anchor="middle" pointer-events="none" font-family="sans-serif" dy="1.5625" font-size="25" fill="#FFFFFF"/><text text-anchor="middle" pointer-events="none" x="0" y="5" font-size="10px" fill="#FFFFFF" font-family="sans-serif"> 11/2/2015</text></g><g class="node" transform="translate(212.48016654207598,116.62295021994672)"><circle class="outline" cx="0" cy="0" r="25" fill="#4C8EDA" stroke="#2870c2" stroke-width="2px"/><text text-anchor="middle" pointer-events="none" font-family="sans-serif" dy="1.5625" font-size="25" fill="#FFFFFF"/><text text-anchor="middle" pointer-events="none" x="0" y="5" font-size="10px" fill="#FFFFFF" font-family="sans-serif"> 11/3/2015</text></g><g class="node" transform="translate(263.64307918667,85.11808652760564)"><circle class="outline" cx="0" cy="0" r="25" fill="#4C8EDA" stroke="#2870c2" stroke-width="2px"/><text text-anchor="middle" pointer-events="none" font-family="sans-serif" dy="1.5625" font-size="25" fill="#FFFFFF"/><text text-anchor="middle" pointer-events="none" x="0" y="5" font-size="10px" fill="#FFFFFF" font-family="sans-serif"> 11/1/2015</text></g><g class="node" transform="translate(-91.94506762527175,84.58889219701622)"><circle class="outline" cx="0" cy="0" r="25" fill="#4C8EDA" stroke="#2870c2" stroke-width="2px"/><text text-anchor="middle" pointer-events="none" font-family="sans-serif" dy="1.5625" font-size="25" fill="#FFFFFF"/><text text-anchor="middle" pointer-events="none" x="0" y="5" font-size="10px" fill="#FFFFFF" font-family="sans-serif"> 11/1/2015</text></g><g class="node" transform="translate(148.05704826743212,-50.126231073042206)"><circle class="outline" cx="0" cy="0" r="25" fill="#4C8EDA" stroke="#2870c2" stroke-width="2px"/><text text-anchor="middle" pointer-events="none" font-family="sans-serif" dy="1.5625" font-size="25" fill="#FFFFFF"/><text text-anchor="middle" pointer-events="none" x="0" y="5" font-size="10px" fill="#FFFFFF" font-family="sans-serif"> 11/3/2015</text></g><g class="node" transform="translate(-75.27030571306052,18.795126251980896)"><circle class="outline" cx="0" cy="0" r="25" fill="#4C8EDA" stroke="#2870c2" stroke-width="2px"/><text text-anchor="middle" pointer-events="none" font-family="sans-serif" dy="1.5625" font-size="25" fill="#FFFFFF"/><text text-anchor="middle" pointer-events="none" x="0" y="5" font-size="10px" fill="#FFFFFF" font-family="sans-serif"> 11/3/2015</text></g><g class="node" transform="translate(178.0894449564014,-101.79635545347483)"><circle class="outline" cx="0" cy="0" r="25" fill="#4C8EDA" stroke="#2870c2" stroke-width="2px"/><text text-anchor="middle" pointer-events="none" font-family="sans-serif" dy="1.5625" font-size="25" fill="#FFFFFF"/><text text-anchor="middle" pointer-events="none" x="0" y="5" font-size="10px" fill="#FFFFFF" font-family="sans-serif"> 11/1/2015</text></g><g class="node" transform="translate(36.24805781074613,224.85566281106335)"><circle class="outline" cx="0" cy="0" r="25" fill="#4C8EDA" stroke="#2870c2" stroke-width="2px"/><text text-anchor="middle" pointer-events="none" font-family="sans-serif" dy="1.5625" font-size="25" fill="#FFFFFF"/><text text-anchor="middle" pointer-events="none" x="0" y="5" font-size="10px" fill="#FFFFFF" font-family="sans-serif"> 11/2/2015</text></g><g class="node" transform="translate(88.12040354660314,-50.27719738205016)"><circle class="outline" cx="0" cy="0" r="25" fill="#4C8EDA" stroke="#2870c2" stroke-width="2px"/><text text-anchor="middle" pointer-events="none" font-family="sans-serif" dy="1.5625" font-size="25" fill="#FFFFFF"/><text text-anchor="middle" pointer-events="none" x="0" y="5" font-size="10px" fill="#FFFFFF" font-family="sans-serif"> 11/1/2015</text></g><g class="node" transform="translate(56.32442871298596,-100.98542580053943)"><circle class="outline" cx="0" cy="0" r="25" fill="#4C8EDA" stroke="#2870c2" stroke-width="2px"/><text text-anchor="middle" pointer-events="none" font-family="sans-serif" dy="1.5625" font-size="25" fill="#FFFFFF"/><text text-anchor="middle" pointer-events="none" x="0" y="5" font-size="10px" fill="#FFFFFF" font-family="sans-serif"> 11/2/2015</text></g><g class="node" transform="translate(28.1579367743639,-48.20808094442539)"><circle class="outline" cx="0" cy="0" r="25" fill="#4C8EDA" stroke="#2870c2" stroke-width="2px"/><text text-anchor="middle" pointer-events="none" font-family="sans-serif" dy="1.5625" font-size="25" fill="#FFFFFF"/><text text-anchor="middle" pointer-events="none" x="0" y="5" font-size="10px" fill="#FFFFFF" font-family="sans-serif"> 11/4/2015</text></g><g class="node" transform="translate(-14.085894296876013,190.51420369175042)"><circle class="outline" cx="0" cy="0" r="25" fill="#4C8EDA" stroke="#2870c2" stroke-width="2px"/><text text-anchor="middle" pointer-events="none" font-family="sans-serif" dy="1.5625" font-size="25" fill="#FFFFFF"/><text text-anchor="middle" pointer-events="none" x="0" y="5" font-size="10px" fill="#FFFFFF" font-family="sans-serif"> 11/30/20…</text></g><g class="node" transform="translate(218.46435160855532,182.73450077427205)"><circle class="outline" cx="0" cy="0" r="25" fill="#4C8EDA" stroke="#2870c2" stroke-width="2px"/><text text-anchor="middle" pointer-events="none" font-family="sans-serif" dy="1.5625" font-size="25" fill="#FFFFFF"/><text text-anchor="middle" pointer-events="none" x="0" y="5" font-size="10px" fill="#FFFFFF" font-family="sans-serif"> 11/2/2015</text></g><g class="node" transform="translate(-3.6141549443028027,-98.84579024597586)"><circle class="outline" cx="0" cy="0" r="25" fill="#4C8EDA" stroke="#2870c2" stroke-width="2px"/><text text-anchor="middle" pointer-events="none" font-family="sans-serif" dy="1.5625" font-size="25" fill="#FFFFFF"/><text text-anchor="middle" pointer-events="none" x="0" y="5" font-size="10px" fill="#FFFFFF" font-family="sans-serif"> 11/3/2015</text></g><g class="node" transform="translate(155.33984443139178,220.87400563981453)"><circle class="outline" cx="0" cy="0" r="25" fill="#4C8EDA" stroke="#2870c2" stroke-width="2px"/><text text-anchor="middle" pointer-events="none" font-family="sans-serif" dy="1.5625" font-size="25" fill="#FFFFFF"/><text text-anchor="middle" pointer-events="none" x="0" y="5" font-size="10px" fill="#FFFFFF" font-family="sans-serif"> 11/30/20…</text></g></g></svg>