<svg xmlns="http://www.w3.org/2000/svg" width="406.5212707519531" height="390.8973083496094" viewBox="-102.18212127685547 -144.33053588867188 406.5212707519531 390.8973083496094"><title>Neo4j Graph Visualization</title><desc>Created using Neo4j (http://www.neo4j.com/)</desc><g class="layer relationships"><g class="relationship" transform="translate(220.8110388080862 -115.33054134957517) rotate(432.4695243934066)"><path class="outline" fill="#A5ABB6" stroke="none" d="M 24.018736134675446,-6.953439040707552 L 24.277555179777966,-5.987513214418485 A 120.56386450149407 120.56386450149407 0 0 1 42.743273679203554,-9.42077767610553 L 42.63761593641809,-10.415180231104998 A 121.56386450149407 121.56386450149407 0 0 0 24.018736134675446,-6.953439040707552 Z M 64.70734694916473,-10.745054361210492 L 64.63145624329525,-9.747938219147471 A 120.56386450149407 120.56386450149407 0 0 1 83.1915361545919,-6.868094777188492 L 82.50203212769524,-3.9484057189336066 L 90.11906129500274,-5.745866890805448 L 84.11087485712078,-10.761013521528339 L 83.42137083022412,-7.841324463273454 A 121.56386450149407 121.56386450149407 0 0 0 64.70734694916473,-10.745054361210492"/><text text-anchor="middle" pointer-events="none" font-size="8px" fill="#000000" x="53.67245171620427" y="-7.582106108623705" font-family="sans-serif">road</text></g><g class="relationship" transform="translate(255.2848118807917 -6.196144942129164) rotate(440.11268625568437)"><path class="outline" fill="#A5ABB6" stroke="none" d="M 21.40063509461097,-12.933012701892217 L 21.90063509461097,-12.06698729810778 A 69.57351991820926 69.57351991820926 0 0 1 32.17680362308323,-16.927573215532973 L 31.824505917584826,-17.863461203863082 A 70.57351991820926 70.57351991820926 0 0 0 21.40063509461097,-12.933012701892217 Z M 77.74964077307648,-19.171834215614666 L 77.45119674274088,-18.21740707813531 A 69.57351991820926 69.57351991820926 0 0 1 87.9874221169214,-13.949750818464159 L 86.63776952927013,-11.27049011956861 L 94.46397251228622,-11.247104897093816 L 89.78695890045641,-17.522098416991557 L 88.43730631280515,-14.842837718096009 A 70.57351991820926 70.57351991820926 0 0 0 77.74964077307648,-19.171834215614666"/><text text-anchor="middle" pointer-events="none" font-size="8px" fill="#000000" x="54.69186213238061" y="-18.859651675895478" font-family="sans-serif">twowheeler</text></g><g class="relationship" transform="translate(275.33913339875545 108.86034439934679) rotate(534.3369246968639)"><path class="outline" fill="#A5ABB6" stroke="none" d="M 21.40063509461097,12.933012701892217 L 21.90063509461097,12.06698729810778 A 64.91338942417335 64.91338942417335 0 0 0 29.994603257784444,16.018488084949666 L 29.619291988953353,16.94538692057759 A 65.91338942417335 65.91338942417335 0 0 1 21.40063509461097,12.933012701892217 Z M 75.4411297699559,18.30070957913736 L 75.12125849421892,17.353248568352008 A 64.91338942417335 64.91338942417335 0 0 0 83.43462820246758,13.887045575327635 L 82.09080844569448,11.204854593815263 L 89.91704378545863,11.19849797310914 L 85.22638787816504,17.46330021734413 L 83.88256812139194,14.781109235831758 A 65.91338942417335 65.91338942417335 0 0 1 75.4411297699559,18.30070957913736"/><text text-anchor="middle" pointer-events="none" font-size="8px" fill="#000000" x="52.42337216744998" y="24.235137296911518" transform="rotate(180 52.42337216744998 21.235137296911518)" font-family="sans-serif">twowheeler</text></g><g class="relationship" transform="translate(163.6184396936243 119.93884022384692) rotate(487.7737035523109)"><path class="outline" fill="#A5ABB6" stroke="none" d="M 25 0.5 L 48.587756565214036 0.5 L 48.587756565214036 -0.5 L 25 -0.5 Z M 67.92369406521404 0.5 L 91.51145063042807 0.5 L 91.51145063042807 3.5 L 98.51145063042807 0 L 91.51145063042807 -3.5 L 91.51145063042807 -0.5 L 67.92369406521404 -0.5 Z"/><text text-anchor="middle" pointer-events="none" font-size="8px" fill="#000000" x="58.255725315214036" y="3" transform="rotate(180 58.255725315214036 0)" font-family="sans-serif">trek</text></g><g class="relationship" transform="translate(220.8110388080862 -115.33054134957517) rotate(432.4695243934066)"><path class="outline" fill="#A5ABB6" stroke="none" d="M 24.018736134675446,6.953439040707552 L 24.277555179777966,5.987513214418485 A 120.56386450149407 120.56386450149407 0 0 0 44.068931789758196,9.55422872013547 L 43.97426953153219,10.549738166031176 A 121.56386450149407 121.56386450149407 0 0 1 24.018736134675446,6.953439040707552 Z M 63.367268913606836,10.839603447923523 L 63.30240186218478,9.84170953290058 A 120.56386450149407 120.56386450149407 0 0 0 83.1915361545919,6.868094777188492 L 82.50203212769524,3.9484057189336066 L 90.11906129500274,5.745866890805448 L 84.11087485712078,10.761013521528339 L 83.42137083022412,7.841324463273454 A 121.56386450149407 121.56386450149407 0 0 1 63.367268913606836,10.839603447923523"/><text text-anchor="middle" pointer-events="none" font-size="8px" fill="#000000" x="53.67245171620428" y="13.582106108623705" font-family="sans-serif">trek</text></g><g class="relationship" transform="translate(255.2848118807917 -6.196144942129164) rotate(440.11268625568437)"><path class="outline" fill="#A5ABB6" stroke="none" d="M 25 0.5 L 43.88971312654123 0.5 L 43.88971312654123 -0.5 L 25 -0.5 Z M 65.90143187654124 0.5 L 84.79114500308246 0.5 L 84.79114500308246 3.5 L 91.79114500308246 0 L 84.79114500308246 -3.5 L 84.79114500308246 -0.5 L 65.90143187654124 -0.5 Z"/><text text-anchor="middle" pointer-events="none" font-size="8px" fill="#000000" x="54.89557250154123" y="3" font-family="sans-serif">road</text></g><g class="relationship" transform="translate(255.2848118807917 -6.196144942129164) rotate(440.11268625568437)"><path class="outline" fill="#A5ABB6" stroke="none" d="M 21.40063509461097,12.933012701892217 L 21.90063509461097,12.06698729810778 A 69.57351991820926 69.57351991820926 0 0 0 45.16024942341255,20.426500923202084 L 44.99456647904156,21.412679995148224 A 70.57351991820926 70.57351991820926 0 0 1 21.40063509461097,12.933012701892217 Z M 64.398876297054,21.965494382246717 L 64.2896075337519,20.97148214018607 A 69.57351991820926 69.57351991820926 0 0 0 87.9874221169214,13.949750818464159 L 86.63776952927013,11.27049011956861 L 94.46397251228622,11.247104897093816 L 89.78695890045641,17.522098416991557 L 88.43730631280515,14.842837718096009 A 70.57351991820926 70.57351991820926 0 0 1 64.398876297054,21.965494382246717"/><text text-anchor="middle" pointer-events="none" font-size="8px" fill="#000000" x="54.691862132380585" y="24.859651675895478" font-family="sans-serif">trek</text></g><g class="relationship" transform="translate(275.33913339875545 108.86034439934679) rotate(534.3369246968639)"><path class="outline" fill="#A5ABB6" stroke="none" d="M 25 0.5 L 41.62845827403087 0.5 L 41.62845827403087 -0.5 L 25 -0.5 Z M 63.64017702403087 0.5 L 80.26863529806174 0.5 L 80.26863529806174 3.5 L 87.26863529806174 0 L 80.26863529806174 -3.5 L 80.26863529806174 -0.5 L 63.64017702403087 -0.5 Z"/><text text-anchor="middle" pointer-events="none" font-size="8px" fill="#000000" x="52.63431764903087" y="3" transform="rotate(180 52.63431764903087 0)" font-family="sans-serif">road</text></g><g class="relationship" transform="translate(275.33913339875545 108.86034439934679) rotate(534.3369246968639)"><path class="outline" fill="#A5ABB6" stroke="none" d="M 21.40063509461097,-12.933012701892217 L 21.90063509461097,-12.06698729810778 A 64.91338942417335 64.91338942417335 0 0 1 42.90407817589349,-19.745344017484193 L 42.72763920494462,-20.729655599012375 A 65.91338942417335 65.91338942417335 0 0 0 21.40063509461097,-12.933012701892217 Z M 62.132031303013356,-21.303600546654664 L 62.01407800757163,-20.310581402783583 A 64.91338942417335 64.91338942417335 0 0 1 83.43462820246758,-13.887045575327635 L 82.09080844569448,-11.204854593815263 L 89.91704378545863,-11.19849797310914 L 85.22638787816504,-17.46330021734413 L 83.88256812139194,-14.781109235831758 A 65.91338942417335 65.91338942417335 0 0 0 62.132031303013356,-21.303600546654664"/><text text-anchor="middle" pointer-events="none" font-size="8px" fill="#000000" x="52.42337216744997" y="-18.235137296911518" transform="rotate(180 52.42337216744997 -21.235137296911518)" font-family="sans-serif">trek</text></g><g class="relationship" transform="translate(220.8110388080862 -115.33054134957517) rotate(486.2387495084213)"><path class="outline" fill="#A5ABB6" stroke="none" d="M 21.40063509461097,12.933012701892217 L 21.90063509461097,12.06698729810778 A 84.98273587000968 84.98273587000968 0 0 0 52.66128206362288,22.63898718854105 L 52.5232455454301,23.629414328539355 A 85.98273587000968 85.98273587000968 0 0 1 21.40063509461097,12.933012701892217 Z M 71.9245946694876,24.121929917793423 L 71.83698880810562,23.125774702452205 A 84.98273587000968 84.98273587000968 0 0 0 103.09442331724665,14.12814326177508 L 101.72817804784874,11.457305590959454 L 109.55408542738276,11.385377244982568 L 104.91608367644385,17.689260156195914 L 103.54983840704594,15.018422485380288 A 85.98273587000968 85.98273587000968 0 0 1 71.9245946694876,24.121929917793423"/><text text-anchor="middle" pointer-events="none" font-size="8px" fill="#000000" x="62.22266828178532" y="26.92498448497716" transform="rotate(180 62.22266828178532 23.92498448497716)" font-family="sans-serif">trek</text></g><g class="relationship" transform="translate(142.89075775219004 -9.01691604762567) rotate(440.86867589404596)"><path class="outline" fill="#A5ABB6" stroke="none" d="M 25 0.5 L 52.13751316808384 0.5 L 52.13751316808384 -0.5 L 25 -0.5 Z M 71.47345066808384 0.5 L 98.61096383616768 0.5 L 98.61096383616768 3.5 L 105.61096383616768 0 L 98.61096383616768 -3.5 L 98.61096383616768 -0.5 L 71.47345066808384 -0.5 Z"/><text text-anchor="middle" pointer-events="none" font-size="8px" fill="#000000" x="61.80548191808384" y="3" font-family="sans-serif">trek</text></g><g class="relationship" transform="translate(220.8110388080862 -115.33054134957517) rotate(486.2387495084213)"><path class="outline" fill="#A5ABB6" stroke="none" d="M 25 0.5 L 51.39967363375649 0.5 L 51.39967363375649 -0.5 L 25 -0.5 Z M 73.41139238375649 0.5 L 99.81106601751299 0.5 L 99.81106601751299 3.5 L 106.81106601751299 0 L 99.81106601751299 -3.5 L 99.81106601751299 -0.5 L 73.41139238375649 -0.5 Z"/><text text-anchor="middle" pointer-events="none" font-size="8px" fill="#000000" x="62.40553300875649" y="3" transform="rotate(180 62.40553300875649 0)" font-family="sans-serif">road</text></g><g class="relationship" transform="translate(220.8110388080862 -115.33054134957517) rotate(486.2387495084213)"><path class="outline" fill="#A5ABB6" stroke="none" d="M 21.40063509461097,-12.933012701892217 L 21.90063509461097,-12.06698729810778 A 84.98273587000968 84.98273587000968 0 0 1 32.36358864876237,-17.186016791596785 L 31.986707226283286,-18.112278306175767 A 85.98273587000968 85.98273587000968 0 0 0 21.40063509461097,-12.933012701892217 Z M 92.71461290929832,-19.653894822655488 L 92.3852141108872,-18.709703935384653 A 84.98273587000968 84.98273587000968 0 0 1 103.09442331724665,-14.12814326177508 L 101.72817804784874,-11.457305590959454 L 109.55408542738276,-11.385377244982568 L 104.91608367644385,-17.689260156195914 L 103.54983840704594,-15.018422485380288 A 85.98273587000968 85.98273587000968 0 0 0 92.71461290929832,-19.653894822655488"/><text text-anchor="middle" pointer-events="none" font-size="8px" fill="#000000" x="62.22266828178531" y="-20.92498448497716" transform="rotate(180 62.22266828178531 -23.92498448497716)" font-family="sans-serif">PublicTransport</text></g><g class="relationship" transform="translate(142.89075775219004 -9.01691604762567) rotate(528.734269077306)"><path class="outline" fill="#A5ABB6" stroke="none" d="M 24.018736134675446,-6.953439040707552 L 24.277555179777966,-5.987513214418485 A 144.31703188889526 144.31703188889526 0 0 1 36.64076258451671,-8.725103360495865 L 36.467610541035015,-9.709998466503663 A 145.31703188889526 145.31703188889526 0 0 0 24.018736134675446,-6.953439040707552 Z M 82.88884688147058,-10.341511398961359 L 82.74255091712394,-9.352270533036432 A 144.31703188889526 144.31703188889526 0 0 1 95.17565348881088,-6.952008551002387 L 94.47831164042783,-4.034181560501798 L 102.10014010804275,-5.811182069858713 L 96.10544261998827,-10.842444538336505 L 95.40810077160522,-7.924617547835916 A 145.31703188889526 145.31703188889526 0 0 0 82.88884688147058,-10.341511398961359"/><text text-anchor="middle" pointer-events="none" font-size="8px" fill="#000000" x="59.659647825591954" y="-8.391598196336957" transform="rotate(180 59.659647825591954 -11.391598196336957)" font-family="sans-serif">twowheeler</text></g><g class="relationship" transform="translate(18.91120441166107 15.679538533308973) rotate(447.644186956279)"><path class="outline" fill="#A5ABB6" stroke="none" d="M 24.018736134675446,-6.953439040707552 L 24.277555179777966,-5.987513214418485 A 113.25463047507264 113.25463047507264 0 0 1 28.913746338689286,-7.125615702746487 L 28.695863290105972,-8.101590588253302 A 114.25463047507264 114.25463047507264 0 0 0 24.018736134675446,-6.953439040707552 Z M 75.03567578777276,-8.815842000890868 L 74.84797516499864,-7.833615715246765 A 113.25463047507264 113.25463047507264 0 0 1 79.51703959124067,-6.838938320556854 L 78.83025895393581,-3.918607456386985 L 86.44560838052118,-5.723171977540493 L 80.43274710764715,-10.732712806116679 L 79.74596647034228,-7.81238194194681 A 114.25463047507264 114.25463047507264 0 0 0 75.03567578777276,-8.815842000890868"/><text text-anchor="middle" pointer-events="none" font-size="8px" fill="#000000" x="51.83687961902463" y="-7.333061165627868" font-family="sans-serif">twowheeler</text></g><g class="relationship" transform="translate(23.464898327061963 126.3676078374503) rotate(414.73152331325946)"><path class="outline" fill="#A5ABB6" stroke="none" d="M 24.018736134675446,6.953439040707552 L 24.277555179777966,5.987513214418485 A 115.0885153110165 115.0885153110165 0 0 0 29.36635576029049,7.227662870278451 L 29.151753121723065,8.204364312644486 A 116.0885153110165 116.0885153110165 0 0 1 24.018736134675446,6.953439040707552 Z M 75.49860263284914,8.913178557837085 L 75.31396810840387,7.930371306956786 A 115.0885153110165 115.0885153110165 0 0 0 80.4383127892805,6.846418305796231 L 79.7508334720828,3.9262518399204627 L 87.36661442919025,5.72899430998088 L 81.35495187887744,10.73997359363059 L 80.66747256167974,7.819807127754821 A 116.0885153110165 116.0885153110165 0 0 1 75.49860263284914,8.913178557837085"/><text text-anchor="middle" pointer-events="none" font-size="8px" fill="#000000" x="52.29708685499397" y="13.395543751284592" font-family="sans-serif">twowheeler</text></g><g class="relationship" transform="translate(142.89075775219004 -9.01691604762567) rotate(528.734269077306)"><path class="outline" fill="#A5ABB6" stroke="none" d="M 24.018736134675446,6.953439040707552 L 24.277555179777966,5.987513214418485 A 144.31703188889526 144.31703188889526 0 0 0 50.04427925830542,10.439232430642392 L 49.96400271606122,11.436005061067874 A 145.31703188889526 145.31703188889526 0 0 1 24.018736134675446,6.953439040707552 Z M 69.3504968984219,11.699738273630146 L 69.29736516821265,10.701150761568755 A 144.31703188889526 144.31703188889526 0 0 0 95.17565348881088,6.952008551002387 L 94.47831164042783,4.034181560501798 L 102.10014010804275,5.811182069858713 L 96.10544261998827,10.842444538336505 L 95.40810077160522,7.924617547835916 A 145.31703188889526 145.31703188889526 0 0 1 69.3504968984219,11.699738273630146"/><text text-anchor="middle" pointer-events="none" font-size="8px" fill="#000000" x="59.659647825591975" y="14.391598196336957" transform="rotate(180 59.659647825591975 11.391598196336957)" font-family="sans-serif">trek</text></g><g class="relationship" transform="translate(18.91120441166107 15.679538533308973) rotate(447.644186956279)"><path class="outline" fill="#A5ABB6" stroke="none" d="M 24.018736134675446,6.953439040707552 L 24.277555179777966,5.987513214418485 A 113.25463047507264 113.25463047507264 0 0 0 42.238136945658276,9.276217727230659 L 42.13790374989843,10.271181699677783 A 114.25463047507264 114.25463047507264 0 0 1 24.018736134675446,6.953439040707552 Z M 61.53315527507708,10.570127359007273 L 61.46363384956221,9.572546900400368 A 113.25463047507264 113.25463047507264 0 0 0 79.51703959124067,6.838938320556854 L 78.83025895393581,3.918607456386985 L 86.44560838052118,5.723171977540493 L 80.43274710764715,10.732712806116679 L 79.74596647034228,7.81238194194681 A 114.25463047507264 114.25463047507264 0 0 1 61.53315527507708,10.570127359007273"/><text text-anchor="middle" pointer-events="none" font-size="8px" fill="#000000" x="51.836879619024636" y="13.333061165627868" font-family="sans-serif">trek</text></g><g class="relationship" transform="translate(23.464898327061963 126.3676078374503) rotate(414.73152331325946)"><path class="outline" fill="#A5ABB6" stroke="none" d="M 24.018736134675446,-6.953439040707552 L 24.277555179777966,-5.987513214418485 A 115.0885153110165 115.0885153110165 0 0 1 42.69708137149765,-9.346281818064753 L 42.59830893175747,-10.341391864817254 A 116.0885153110165 116.0885153110165 0 0 0 24.018736134675446,-6.953439040707552 Z M 61.99298478804157,-10.638007981615601 L 61.92468922967424,-9.64034284906495 A 115.0885153110165 115.0885153110165 0 0 1 80.4383127892805,-6.846418305796231 L 79.7508334720828,-3.9262518399204627 L 87.36661442919025,-5.72899430998088 L 81.35495187887744,-10.73997359363059 L 80.66747256167974,-7.819807127754821 A 116.0885153110165 116.0885153110165 0 0 0 61.99298478804157,-10.638007981615601"/><text text-anchor="middle" pointer-events="none" font-size="8px" fill="#000000" x="52.29708685499395" y="-7.395543751284592" font-family="sans-serif">trek</text></g><g class="relationship" transform="translate(142.89075775219004 -9.01691604762567) rotate(361.4376593201651)"><path class="outline" fill="#A5ABB6" stroke="none" d="M 25 0.5 L 43.046753861369 0.5 L 43.046753861369 -0.5 L 25 -0.5 Z M 62.382691361369 0.5 L 80.429445222738 0.5 L 80.429445222738 3.5 L 87.429445222738 0 L 80.429445222738 -3.5 L 80.429445222738 -0.5 L 62.382691361369 -0.5 Z"/><text text-anchor="middle" pointer-events="none" font-size="8px" fill="#000000" x="52.714722611369" y="3" font-family="sans-serif">trek</text></g><g class="relationship" transform="translate(18.91120441166107 15.679538533308973) rotate(499.6477585400879)"><path class="outline" fill="#A5ABB6" stroke="none" d="M 24.018736134675446,-6.953439040707552 L 24.277555179777966,-5.987513214418485 A 133.27478053993525 133.27478053993525 0 0 1 33.88095185872169,-8.183798526218652 L 33.69418993230312,-9.166203729197747 A 134.27478053993525 134.27478053993525 0 0 0 24.018736134675446,-6.953439040707552 Z M 80.09393761003999,-9.82497898620548 L 79.93514136469199,-8.837667610567905 A 133.27478053993525 133.27478053993525 0 0 1 89.59701951262097,-6.914907199453512 L 88.90314300937634,-3.9962541885176464 L 96.52285595534543,-5.7823041937053326 L 90.52218818361384,-10.806444547367999 L 89.8283116803692,-7.887791536432133 A 134.27478053993525 134.27478053993525 0 0 0 80.09393761003999,-9.82497898620548"/><text text-anchor="middle" pointer-events="none" font-size="8px" fill="#000000" x="56.872487786149335" y="-8.015260243683912" transform="rotate(180 56.872487786149335 -11.015260243683912)" font-family="sans-serif">twowheeler</text></g><g class="relationship" transform="translate(-73.18211809574996 93.92482826696498) rotate(378.5560368863338)"><path class="outline" fill="#A5ABB6" stroke="none" d="M 21.40063509461097,12.933012701892217 L 21.90063509461097,12.06698729810778 A 54.2318750399002 54.2318750399002 0 0 0 25.09263708545267,13.770525143363649 L 24.65149549646083,14.667962661223115 A 55.2318750399002 55.2318750399002 0 0 1 21.40063509461097,12.933012701892217 Z M 70.12148867445896,16.141402783536677 L 69.73937388938872,15.217287914577888 A 54.2318750399002 54.2318750399002 0 0 0 73.03496866057753,13.723978501271572 L 71.70631852474808,11.034240815815911 L 79.53246494927899,11.072084465245453 L 74.8065021750168,17.31029541521245 L 73.47785203918735,14.620557729756792 A 55.2318750399002 55.2318750399002 0 0 1 70.12148867445896,16.141402783536677"/><text text-anchor="middle" pointer-events="none" font-size="8px" fill="#000000" x="47.24393471346416" y="22.80396752123653" font-family="sans-serif">twowheeler</text></g><g class="relationship" transform="translate(18.91120441166107 15.679538533308973) rotate(499.6477585400879)"><path class="outline" fill="#A5ABB6" stroke="none" d="M 24.018736134675446,6.953439040707552 L 24.277555179777966,5.987513214418485 A 133.27478053993525 133.27478053993525 0 0 0 47.26204351016912,10.03083023884031 L 47.175683862390486,11.027094265710474 A 134.27478053993525 134.27478053993525 0 0 1 24.018736134675446,6.953439040707552 Z M 66.56504720450283,11.302380952776787 L 66.5070062190118,10.304066751734211 A 133.27478053993525 133.27478053993525 0 0 0 89.59701951262097,6.914907199453512 L 88.90314300937634,3.9962541885176464 L 96.52285595534543,5.7823041937053326 L 90.52218818361384,10.806444547367999 L 89.8283116803692,7.887791536432133 A 134.27478053993525 134.27478053993525 0 0 1 66.56504720450283,11.302380952776787"/><text text-anchor="middle" pointer-events="none" font-size="8px" fill="#000000" x="56.87248778614936" y="14.015260243683912" transform="rotate(180 56.87248778614936 11.015260243683912)" font-family="sans-serif">trek</text></g><g class="relationship" transform="translate(-73.18211809574996 93.92482826696498) rotate(378.5560368863338)"><path class="outline" fill="#A5ABB6" stroke="none" d="M 25 0.5 L 36.467613455704736 0.5 L 36.467613455704736 -0.5 L 25 -0.5 Z M 58.479332205704736 0.5 L 69.94694566140947 0.5 L 69.94694566140947 3.5 L 76.94694566140947 0 L 69.94694566140947 -3.5 L 69.94694566140947 -0.5 L 58.479332205704736 -0.5 Z"/><text text-anchor="middle" pointer-events="none" font-size="8px" fill="#000000" x="47.473472830704736" y="3" font-family="sans-serif">road</text></g><g class="relationship" transform="translate(-73.18211809574996 93.92482826696498) rotate(378.5560368863338)"><path class="outline" fill="#A5ABB6" stroke="none" d="M 21.40063509461097,-12.933012701892217 L 21.90063509461097,-12.06698729810778 A 54.2318750399002 54.2318750399002 0 0 1 37.7625526662621,-18.152132902437344 L 37.55503596247823,-19.130364376910883 A 55.2318750399002 55.2318750399002 0 0 0 21.40063509461097,-12.933012701892217 Z M 56.95611688943823,-19.759050001343034 L 56.812367573139596,-18.769435867418267 A 54.2318750399002 54.2318750399002 0 0 1 73.03496866057753,-13.723978501271572 L 71.70631852474808,-11.034240815815911 L 79.53246494927899,-11.072084465245453 L 74.8065021750168,-17.31029541521245 L 73.47785203918735,-14.620557729756792 A 55.2318750399002 55.2318750399002 0 0 0 56.95611688943823,-19.759050001343034"/><text text-anchor="middle" pointer-events="none" font-size="8px" fill="#000000" x="47.24393471346415" y="-16.80396752123653" font-family="sans-serif">trek</text></g><g class="relationship" transform="translate(-73.18211809574996 93.92482826696498) rotate(430.747571358428)"><path class="outline" fill="#A5ABB6" stroke="none" d="M 25 0.5 L 48.69453205512536 0.5 L 48.69453205512536 -0.5 L 25 -0.5 Z M 68.03046955512536 0.5 L 91.72500161025071 0.5 L 91.72500161025071 3.5 L 98.72500161025071 0 L 91.72500161025071 -3.5 L 91.72500161025071 -0.5 L 68.03046955512536 -0.5 Z"/><text text-anchor="middle" pointer-events="none" font-size="8px" fill="#000000" x="58.36250080512536" y="3" font-family="sans-serif">trek</text></g><g class="relationship" transform="translate(-32.386191307963756 210.73051469096632) rotate(363.25112653045954)"><path class="outline" fill="#A5ABB6" stroke="none" d="M 25 0.5 L 47.10322989090459 0.5 L 47.10322989090459 -0.5 L 25 -0.5 Z M 66.4391673909046 0.5 L 88.54239728180919 0.5 L 88.54239728180919 3.5 L 95.54239728180919 0 L 88.54239728180919 -3.5 L 88.54239728180919 -0.5 L 66.4391673909046 -0.5 Z"/><text text-anchor="middle" pointer-events="none" font-size="8px" fill="#000000" x="56.77119864090459" y="3" font-family="sans-serif">trek</text></g></g><g class="layer nodes"><g class="node" transform="translate(220.8110388080862,-115.33054134957517)"><circle class="outline" cx="0" cy="0" r="25" fill="#F16667" stroke="#eb2728" stroke-width="2px"/><text text-anchor="middle" pointer-events="none" font-family="sans-serif" dy="1.5625" font-size="25" fill="#FFFFFF"/><text text-anchor="middle" pointer-events="none" x="0" y="5" font-size="10px" fill="#FFFFFF" font-family="sans-serif"> Darjeeling</text></g><g class="node" transform="translate(87.96219969839461,217.56676546359006)"><circle class="outline" cx="0" cy="0" r="25" fill="#8DCC93" stroke="#5db665" stroke-width="2px"/><text text-anchor="middle" pointer-events="none" font-family="sans-serif" dy="1.5625" font-size="25" fill="#2A2C34"/><text text-anchor="middle" pointer-events="none" x="0" y="5" font-size="10px" fill="#2A2C34" font-family="sans-serif"> Sandak…</text></g><g class="node" transform="translate(255.2848118807917,-6.196144942129164)"><circle class="outline" cx="0" cy="0" r="25" fill="#D9C8AE" stroke="#c0a378" stroke-width="2px"/><text text-anchor="middle" pointer-events="none" font-family="sans-serif" dy="1.5625" font-size="25" fill="#2A2C34"/><text text-anchor="middle" pointer-events="none" x="0" y="5" font-size="10px" fill="#2A2C34" font-family="sans-serif"> Tumbling</text></g><g class="node" transform="translate(275.33913339875545,108.86034439934679)"><circle class="outline" cx="0" cy="0" r="25" fill="#D9C8AE" stroke="#c0a378" stroke-width="2px"/><text text-anchor="middle" pointer-events="none" font-family="sans-serif" dy="1.5625" font-size="25" fill="#2A2C34"/><text text-anchor="middle" pointer-events="none" x="0" y="5" font-size="10px" fill="#2A2C34" font-family="sans-serif"> Gairibus</text></g><g class="node" transform="translate(163.6184396936243,119.93884022384692)"><circle class="outline" cx="0" cy="0" r="25" fill="#D9C8AE" stroke="#c0a378" stroke-width="2px"/><text text-anchor="middle" pointer-events="none" font-family="sans-serif" dy="1.5625" font-size="25" fill="#2A2C34"/><text text-anchor="middle" pointer-events="none" x="0" y="5" font-size="10px" fill="#2A2C34" font-family="sans-serif"> BhikeBh…</text></g><g class="node" transform="translate(142.89075775219004,-9.01691604762567)"><circle class="outline" cx="0" cy="0" r="25" fill="#F16667" stroke="#eb2728" stroke-width="2px"/><text text-anchor="middle" pointer-events="none" font-family="sans-serif" dy="1.5625" font-size="25" fill="#FFFFFF"/><text text-anchor="middle" pointer-events="none" x="0" y="5" font-size="10px" fill="#FFFFFF" font-family="sans-serif"> Rimbik</text></g><g class="node" transform="translate(18.91120441166107,15.679538533308973)"><circle class="outline" cx="0" cy="0" r="25" fill="#D9C8AE" stroke="#c0a378" stroke-width="2px"/><text text-anchor="middle" pointer-events="none" font-family="sans-serif" dy="1.5625" font-size="25" fill="#2A2C34"/><text text-anchor="middle" pointer-events="none" x="0" y="5" font-size="10px" fill="#2A2C34" font-family="sans-serif"> Sirikhola</text></g><g class="node" transform="translate(23.464898327061963,126.3676078374503)"><circle class="outline" cx="0" cy="0" r="25" fill="#D9C8AE" stroke="#c0a378" stroke-width="2px"/><text text-anchor="middle" pointer-events="none" font-family="sans-serif" dy="1.5625" font-size="25" fill="#2A2C34"/><text text-anchor="middle" pointer-events="none" x="0" y="5" font-size="10px" fill="#2A2C34" font-family="sans-serif"> Gurdum</text></g><g class="node" transform="translate(-73.18211809574996,93.92482826696498)"><circle class="outline" cx="0" cy="0" r="25" fill="#D9C8AE" stroke="#c0a378" stroke-width="2px"/><text text-anchor="middle" pointer-events="none" font-family="sans-serif" dy="1.5625" font-size="25" fill="#2A2C34"/><text text-anchor="middle" pointer-events="none" x="0" y="5" font-size="10px" fill="#2A2C34" font-family="sans-serif"> Rammam</text></g><g class="node" transform="translate(-32.386191307963756,210.73051469096632)"><circle class="outline" cx="0" cy="0" r="25" fill="#8DCC93" stroke="#5db665" stroke-width="2px"/><text text-anchor="middle" pointer-events="none" font-family="sans-serif" dy="1.5625" font-size="25" fill="#2A2C34"/><text text-anchor="middle" pointer-events="none" x="0" y="5" font-size="10px" fill="#2A2C34" font-family="sans-serif"> Sabargr…</text></g></g></svg>