<svg xmlns="http://www.w3.org/2000/svg" width="162.8395538330078" height="242.65301513671875" viewBox="0.1793956756591797 -20.29918670654297 162.8395538330078 242.65301513671875"><title>Neo4j Graph Visualization</title><desc>Created using Neo4j (http://www.neo4j.com/)</desc><g class="layer relationships"><g class="relationship" transform="translate(134.0189519036082 8.70081290406852) rotate(520.8872228051242)"><path class="outline" fill="#A5ABB6" stroke="none" d="M 21.40063509461097,12.933012701892217 L 21.90063509461097,12.06698729810778 A 59.93047845491191 59.93047845491191 0 0 0 23.46649189055565,12.94007077926981 L 22.992619778006485,13.820664454552684 A 60.93047845491191 60.93047845491191 0 0 1 21.40063509461097,12.933012701892217 Z M 77.37851744543549,15.497652617693198 L 76.95980018323235,14.589535965311413 A 59.93047845491191 59.93047845491191 0 0 0 78.57647406786663,13.814585759668667 L 77.2393948169862,11.129028261333351 L 85.0656214391291,11.142327090670223 L 80.35924640237387,17.39532909078242 L 79.02216715149345,14.709771592447105 A 60.93047845491191 60.93047845491191 0 0 1 77.37851744543549,15.497652617693198"/><text text-anchor="middle" pointer-events="none" font-size="8px" fill="#000000" x="50.00338683309178" y="23.56744088848196" transform="rotate(180 50.00338683309178 20.56744088848196)" font-family="sans-serif">PublicTrans…</text></g><g class="relationship" transform="translate(32.4965063977563 43.88146830986185) rotate(451.7814452547235)"><path class="outline" fill="#A5ABB6" stroke="none" d="M 25 0.5 L 40.18394602481253 0.5 L 40.18394602481253 -0.5 L 25 -0.5 Z M 59.51988352481253 0.5 L 74.70382954962506 0.5 L 74.70382954962506 3.5 L 81.70382954962506 0 L 74.70382954962506 -3.5 L 74.70382954962506 -0.5 L 59.51988352481253 -0.5 Z"/><text text-anchor="middle" pointer-events="none" font-size="8px" fill="#000000" x="49.85191477481253" y="3" transform="rotate(180 49.85191477481253 0)" font-family="sans-serif">trek</text></g><g class="relationship" transform="translate(29.179396356561025 150.53372577087407) rotate(383.4948078977668)"><path class="outline" fill="#A5ABB6" stroke="none" d="M 25 0.5 L 40.53628220732606 0.5 L 40.53628220732606 -0.5 L 25 -0.5 Z M 59.87221970732606 0.5 L 75.40850191465212 0.5 L 75.40850191465212 3.5 L 82.40850191465212 0 L 75.40850191465212 -3.5 L 75.40850191465212 -0.5 L 59.87221970732606 -0.5 Z"/><text text-anchor="middle" pointer-events="none" font-size="8px" fill="#000000" x="50.20425095732606" y="3" font-family="sans-serif">trek</text></g><g class="relationship" transform="translate(134.0189519036082 8.70081290406852) rotate(520.8872228051242)"><path class="outline" fill="#A5ABB6" stroke="none" d="M 25 0.5 L 40.55466487929503 0.5 L 40.55466487929503 -0.5 L 25 -0.5 Z M 59.89060237929503 0.5 L 75.44526725859006 0.5 L 75.44526725859006 3.5 L 82.44526725859006 0 L 75.44526725859006 -3.5 L 75.44526725859006 -0.5 L 59.89060237929503 -0.5 Z"/><text text-anchor="middle" pointer-events="none" font-size="8px" fill="#000000" x="50.22263362929503" y="3" transform="rotate(180 50.22263362929503 0)" font-family="sans-serif">trek</text></g><g class="relationship" transform="translate(134.0189519036082 8.70081290406852) rotate(520.8872228051242)"><path class="outline" fill="#A5ABB6" stroke="none" d="M 21.40063509461097,-12.933012701892217 L 21.90063509461097,-12.06698729810778 A 59.93047845491191 59.93047845491191 0 0 1 39.1999441689401,-18.742427499924574 L 38.9886004506907,-19.71983930298228 A 60.93047845491191 60.93047845491191 0 0 0 21.40063509461097,-12.933012701892217 Z M 61.04946938620406,-20.400085794447406 L 60.89874686937805,-19.411509685631486 A 59.93047845491191 59.93047845491191 0 0 1 78.57647406786663,-13.814585759668667 L 77.2393948169862,-11.129028261333351 L 85.0656214391291,-11.142327090670223 L 80.35924640237387,-17.39532909078242 L 79.02216715149345,-14.709771592447105 A 60.93047845491191 60.93047845491191 0 0 0 61.04946938620406,-20.400085794447406"/><text text-anchor="middle" pointer-events="none" font-size="8px" fill="#000000" x="50.003386833091795" y="-17.56744088848196" transform="rotate(180 50.003386833091795 -20.56744088848196)" font-family="sans-serif">road</text></g></g><g class="layer nodes"><g class="node" transform="translate(134.0189519036082,8.70081290406852)"><circle class="outline" cx="0" cy="0" r="25" fill="#F16667" stroke="#eb2728" stroke-width="2px"/><text text-anchor="middle" pointer-events="none" font-family="sans-serif" dy="1.5625" font-size="25" fill="#FFFFFF"/><text text-anchor="middle" pointer-events="none" x="0" y="5" font-size="10px" fill="#FFFFFF" font-family="sans-serif"> Darjeeling</text></g><g class="node" transform="translate(127.6833258443074,193.35383972474997)"><circle class="outline" cx="0" cy="0" r="25" fill="#8DCC93" stroke="#5db665" stroke-width="2px"/><text text-anchor="middle" pointer-events="none" font-family="sans-serif" dy="1.5625" font-size="25" fill="#2A2C34"/><text text-anchor="middle" pointer-events="none" x="0" y="5" font-size="10px" fill="#2A2C34" font-family="sans-serif"> Sandak…</text></g><g class="node" transform="translate(32.4965063977563,43.88146830986185)"><circle class="outline" cx="0" cy="0" r="25" fill="#F16667" stroke="#eb2728" stroke-width="2px"/><text text-anchor="middle" pointer-events="none" font-family="sans-serif" dy="1.5625" font-size="25" fill="#FFFFFF"/><text text-anchor="middle" pointer-events="none" x="0" y="5" font-size="10px" fill="#FFFFFF" font-family="sans-serif"> Rimbik</text></g><g class="node" transform="translate(29.179396356561025,150.53372577087407)"><circle class="outline" cx="0" cy="0" r="25" fill="#D9C8AE" stroke="#c0a378" stroke-width="2px"/><text text-anchor="middle" pointer-events="none" font-family="sans-serif" dy="1.5625" font-size="25" fill="#2A2C34"/><text text-anchor="middle" pointer-events="none" x="0" y="5" font-size="10px" fill="#2A2C34" font-family="sans-serif"> BhikeBh…</text></g></g></svg>